<svg xmlns="http://www.w3.org/2000/svg" width="634.1527099609375" height="363.2441101074219" viewBox="-198.27810668945312 -117.39089965820312 634.1527099609375 363.2441101074219"><title>Neo4j Graph Visualization</title><desc>Created using Neo4j (http://www.neo4j.com/)</desc><g class="layer relationships"><g class="relationship" transform="translate(165.4024137866311 141.7001339521071) rotate(361.90870313845295)"><path class="outline" fill="#604A0E" stroke="none" d="M 24.018736134675446,6.953439040707552 L 24.277555179777966,5.987513214418485 A 354.96638959500723 354.96638959500723 0 0 0 95.27216597092169,17.468211083595293 L 95.2133506807441,18.466479966031955 A 355.96638959500723 355.96638959500723 0 0 1 24.018736134675446,6.953439040707552 Z M 131.7358824112797,18.74130755479763 L 131.69209663349667,17.742266611860884 A 354.96638959500723 354.96638959500723 0 0 0 202.8514398269445,7.331259877333093 L 202.1186789921994,4.422125717645083 L 209.76154633867404,6.106340289542525 L 203.82845427327132,11.210105423583773 L 203.0956934385262,8.300971263895763 A 355.96638959500723 355.96638959500723 0 0 1 131.7358824112797,18.74130755479763"/><text text-anchor="middle" pointer-events="none" font-size="8px" fill="#000000" x="113.47485175581653" y="21.5726361359836" font-family="sans-serif">connect</text></g><g class="relationship" transform="translate(289.0368440791152 66.5729979877449) rotate(396.94999955420883)"><path class="outline" fill="#604A0E" stroke="none" d="M 24.018736134675446,6.953439040707552 L 24.277555179777966,5.987513214418485 A 167.099929573131 167.099929573131 0 0 0 47.29425419491432,10.45197239098718 L 47.17317727258788,11.444615518641825 A 168.099929573131 168.099929573131 0 0 1 24.018736134675446,6.953439040707552 Z M 83.695218140103,11.901873979836864 L 83.59903119467971,10.906510693629201 A 167.099929573131 167.099929573131 0 0 0 106.72028865861164,7.019701902449312 L 106.01662428178977,4.1033932005468685 L 113.64228635918764,5.863869806848735 L 107.65850782770744,10.908113504985904 L 106.95484345088558,7.99180480308346 A 168.099929573131 168.099929573131 0 0 1 83.695218140103,11.901873979836864"/><text text-anchor="middle" pointer-events="none" font-size="8px" fill="#000000" x="65.42800119613268" y="15.168170963692717" font-family="sans-serif">connect</text></g><g class="relationship" transform="translate(283.04270709845866 216.85323076527783) rotate(329.9071934824379)"><path class="outline" fill="#604A0E" stroke="none" d="M 24.018736134675446,6.953439040707552 L 24.277555179777966,5.987513214418485 A 159.98891307130685 159.98891307130685 0 0 0 45.49827621811267,10.160262797432239 L 45.37209587047337,11.152270115887916 A 160.98891307130685 160.98891307130685 0 0 1 24.018736134675446,6.953439040707552 Z M 81.8922629898102,11.621181539163217 L 81.79159437982494,10.626261526818695 A 159.98891307130685 159.98891307130685 0 0 0 103.11245648981696,6.999737108582666 L 102.4106567922607,4.082979116477402 L 110.03519175432196,5.848330812968914 L 104.04818941989198,10.888747764723018 L 103.34638972233572,7.9719897726177535 A 160.98891307130685 160.98891307130685 0 0 1 81.8922629898102,11.621181539163217"/><text text-anchor="middle" pointer-events="none" font-size="8px" fill="#000000" x="63.62525814030444" y="14.925775739714936" font-family="sans-serif">connect</text></g><g class="relationship" transform="translate(406.87456199751307 -0.11705487580819351) rotate(452.90713365178163)"><path class="outline" fill="#604A0E" stroke="none" d="M 24.018736134675446,6.953439040707552 L 24.277555179777966,5.987513214418485 A 190.4523065148687 190.4523065148687 0 0 0 53.209093007433516,11.385491085780956 L 53.10218358399471,12.379759849838223 A 191.4523065148687 191.4523065148687 0 0 1 24.018736134675446,6.953439040707552 Z M 89.62792881269466,12.802425984580111 L 89.54405575931926,11.805949536831605 A 190.4523065148687 190.4523065148687 0 0 0 118.59275765055011,7.078903460561854 L 117.88356406001452,4.16393442965548 L 125.51255098775424,5.909946587796548 L 119.53834910459756,10.965528835103685 L 118.82915551406197,8.050559804197311 A 191.4523065148687 191.4523065148687 0 0 1 89.62792881269466,12.802425984580111"/><text text-anchor="middle" pointer-events="none" font-size="8px" fill="#000000" x="71.36073830115701" y="15.964234741540082" transform="rotate(180 71.36073830115701 12.964234741540082)" font-family="sans-serif">connect</text></g><g class="relationship" transform="translate(167.7404108055454 -6.255306339195371) rotate(361.4703825841853)"><path class="outline" fill="#604A0E" stroke="none" d="M 24.018736134675446,6.953439040707552 L 24.277555179777966,5.987513214418485 A 365.1003309848022 365.1003309848022 0 0 0 97.8755998827765,17.829488218668303 L 97.81836390527756,18.827848896419482 A 366.1003309848022 366.1003309848022 0 0 1 24.018736134675446,6.953439040707552 Z M 134.34039370324956,19.096853225016048 L 134.2978700610297,18.097757764185417 A 365.1003309848022 365.1003309848022 0 0 0 208.06236516948277,7.3411868653905925 L 207.32867733044338,4.432286359212066 L 214.9720809904059,6.114065325328395 L 209.04061562153532,11.219720873628628 L 208.30692778249593,8.310820367450102 A 366.1003309848022 366.1003309848022 0 0 1 134.34039370324956,19.096853225016048"/><text text-anchor="middle" pointer-events="none" font-size="8px" fill="#000000" x="116.07970482098789" y="21.91808860374283" font-family="sans-serif">connect</text></g><g class="relationship" transform="translate(294.91170420416535 -88.39090259216275) rotate(398.25298155035375)"><path class="outline" fill="#604A0E" stroke="none" d="M 24.018736134675446,6.953439040707552 L 24.277555179777966,5.987513214418485 A 176.22837184300803 176.22837184300803 0 0 0 49.60349378688688,10.820953457723135 L 49.48838564566577,11.814306424107514 A 177.22837184300803 177.22837184300803 0 0 1 24.018736134675446,6.953439040707552 Z M 86.0122539581937,12.257406506807314 L 85.92127845754237,11.261553375928429 A 176.22837184300803 176.22837184300803 0 0 0 111.35702254964225,7.043943460603789 L 110.65109407713,4.128181983442715 L 118.27812074177012,5.882737270935392 L 112.29826051299192,10.931625430151888 L 111.59233204047966,8.015863952990815 A 177.22837184300803 177.22837184300803 0 0 1 86.0122539581937,12.257406506807314"/><text text-anchor="middle" pointer-events="none" font-size="8px" fill="#000000" x="67.74493948601396" y="15.479345324205326" font-family="sans-serif">connect</text></g><g class="relationship" transform="translate(289.0368440791152 66.5729979877449) rotate(330.49238366599064)"><path class="outline" fill="#604A0E" stroke="none" d="M 24.018736134675446,6.953439040707552 L 24.277555179777966,5.987513214418485 A 162.07957057758685 162.07957057758685 0 0 0 46.0260168215677,10.246447131871406 L 45.90138163174248,11.238649767151742 A 163.07957057758685 163.07957057758685 0 0 1 24.018736134675446,6.953439040707552 Z M 82.42214649812435,11.70407585201312 L 82.3228372371699,10.709019235187384 A 162.07957057758685 162.07957057758685 0 0 0 104.17277089828976,7.005709782509868 L 103.47041336064754,4.08908606846701 L 111.09528582066346,5.852979480351829 L 105.10924761514605,10.89454140123368 L 104.40689007750383,7.977917687190821 A 163.07957057758685 163.07957057758685 0 0 1 82.42214649812435,11.70407585201312"/><text text-anchor="middle" pointer-events="none" font-size="8px" fill="#000000" x="64.15506475984213" y="14.997039719332747" font-family="sans-serif">connect</text></g><g class="relationship" transform="translate(399.2769117433921 149.49411454698276) rotate(272.90713365178163)"><path class="outline" fill="#604A0E" stroke="none" d="M 24.018736134675446,6.953439040707552 L 24.277555179777966,5.987513214418485 A 190.4523065148687 190.4523065148687 0 0 0 53.209093007433516,11.385491085780956 L 53.10218358399471,12.379759849838223 A 191.4523065148687 191.4523065148687 0 0 1 24.018736134675446,6.953439040707552 Z M 89.62792881269466,12.802425984580111 L 89.54405575931926,11.805949536831605 A 190.4523065148687 190.4523065148687 0 0 0 118.59275765055011,7.078903460561854 L 117.88356406001452,4.16393442965548 L 125.51255098775424,5.909946587796548 L 119.53834910459756,10.965528835103685 L 118.82915551406197,8.050559804197311 A 191.4523065148687 191.4523065148687 0 0 1 89.62792881269466,12.802425984580111"/><text text-anchor="middle" pointer-events="none" font-size="8px" fill="#000000" x="71.36073830115701" y="15.964234741540082" font-family="sans-serif">connect</text></g><g class="relationship" transform="translate(289.0368440791152 66.5729979877449) rotate(452.28411142127214)"><path class="outline" fill="#604A0E" stroke="none" d="M 24.018736134675446,6.953439040707552 L 24.277555179777966,5.987513214418485 A 191.62362413382507 191.62362413382507 0 0 0 53.50636808322033,11.431484047842616 L 53.400081446559426,12.425819580179308 A 192.62362413382507 192.62362413382507 0 0 1 24.018736134675446,6.953439040707552 Z M 89.92593953958051,12.84688476987344 L 89.84260323535207,11.85036328972484 A 191.62362413382507 191.62362413382507 0 0 0 119.1891466909098,7.081641302580815 L 118.47969739990667,4.166734493865456 L 126.10883745974616,5.91207742502607 L 120.13507907891396,10.968183714201292 L 119.42562978791084,8.053276905485934 A 192.62362413382507 192.62362413382507 0 0 1 89.92593953958051,12.84688476987344"/><text text-anchor="middle" pointer-events="none" font-size="8px" fill="#000000" x="71.65877039243263" y="16.004165325982655" transform="rotate(180 71.65877039243263 13.004165325982655)" font-family="sans-serif">connect</text></g><g class="relationship" transform="translate(165.4024137866311 141.7001339521071) rotate(392.5719889879348)"><path class="outline" fill="#604A0E" stroke="none" d="M 24.018736134675446,6.953439040707552 L 24.277555179777966,5.987513214418485 A 170.35707650122245 170.35707650122245 0 0 0 48.11776111636122,10.58429636045841 L 47.99888463441024,11.577205410693608 A 171.35707650122245 171.35707650122245 0 0 1 24.018736134675446,6.953439040707552 Z M 84.52164470389917,12.029312155985053 L 84.42738286197574,11.03376471605202 A 170.35707650122245 170.35707650122245 0 0 0 108.37407124451654,7.028524411163747 L 107.66958286599095,4.112414652508837 L 115.29574207779892,5.8707364877132 L 109.31338908255066,10.91667075603696 L 108.60890070402506,8.000560997382049 A 171.35707650122245 171.35707650122245 0 0 1 84.52164470389917,12.029312155985053"/><text text-anchor="middle" pointer-events="none" font-size="8px" fill="#000000" x="66.25437309384141" y="15.279200790044314" font-family="sans-serif">connect</text></g><g class="relationship" transform="translate(399.2769117433921 149.49411454698276) rotate(509.9071934824379)"><path class="outline" fill="#604A0E" stroke="none" d="M 24.018736134675446,6.953439040707552 L 24.277555179777966,5.987513214418485 A 159.98891307130685 159.98891307130685 0 0 0 45.49827621811267,10.160262797432239 L 45.37209587047337,11.152270115887916 A 160.98891307130685 160.98891307130685 0 0 1 24.018736134675446,6.953439040707552 Z M 81.8922629898102,11.621181539163217 L 81.79159437982494,10.626261526818695 A 159.98891307130685 159.98891307130685 0 0 0 103.11245648981696,6.999737108582666 L 102.4106567922607,4.082979116477402 L 110.03519175432196,5.848330812968914 L 104.04818941989198,10.888747764723018 L 103.34638972233572,7.9719897726177535 A 160.98891307130685 160.98891307130685 0 0 1 81.8922629898102,11.621181539163217"/><text text-anchor="middle" pointer-events="none" font-size="8px" fill="#000000" x="63.62525814030444" y="14.925775739714936" transform="rotate(180 63.62525814030444 11.925775739714936)" font-family="sans-serif">connect</text></g><g class="relationship" transform="translate(167.7404108055454 -6.255306339195371) rotate(390.9812738916802)"><path class="outline" fill="#604A0E" stroke="none" d="M 24.018736134675446,6.953439040707552 L 24.277555179777966,5.987513214418485 A 174.0702859400712 174.0702859400712 0 0 0 49.057202763171205,10.734235139634762 L 48.94073798289665,11.727429961890493 A 175.0702859400712 175.0702859400712 0 0 1 24.018736134675446,6.953439040707552 Z M 85.46422522607041,12.1737996873741 L 85.37206815457237,11.178055205002778 A 174.0702859400712 174.0702859400712 0 0 0 110.26032074286502,7.038346701516269 L 109.5549149898789,4.1224587195022 L 117.1816269930622,5.878381274884331 L 111.20086174684651,10.926197344201695 L 110.49545599386039,8.010309362187625 A 175.0702859400712 175.0702859400712 0 0 1 85.46422522607041,12.1737996873741"/><text text-anchor="middle" pointer-events="none" font-size="8px" fill="#000000" x="67.19691884617362" y="15.405778606067145" font-family="sans-serif">connect</text></g><g class="relationship" transform="translate(399.2769117433921 149.49411454698276) rotate(216.94999955420883)"><path class="outline" fill="#604A0E" stroke="none" d="M 24.018736134675446,6.953439040707552 L 24.277555179777966,5.987513214418485 A 167.099929573131 167.099929573131 0 0 0 47.29425419491432,10.45197239098718 L 47.17317727258788,11.444615518641825 A 168.099929573131 168.099929573131 0 0 1 24.018736134675446,6.953439040707552 Z M 83.695218140103,11.901873979836864 L 83.59903119467971,10.906510693629201 A 167.099929573131 167.099929573131 0 0 0 106.72028865861164,7.019701902449312 L 106.01662428178977,4.1033932005468685 L 113.64228635918764,5.863869806848735 L 107.65850782770744,10.908113504985904 L 106.95484345088558,7.99180480308346 A 168.099929573131 168.099929573131 0 0 1 83.695218140103,11.901873979836864"/><text text-anchor="middle" pointer-events="none" font-size="8px" fill="#000000" x="65.42800119613268" y="15.168170963692717" transform="rotate(180 65.42800119613268 12.168170963692717)" font-family="sans-serif">connect</text></g><g class="relationship" transform="translate(406.87456199751307 -0.11705487580819351) rotate(510.49238366599064)"><path class="outline" fill="#604A0E" stroke="none" d="M 24.018736134675446,6.953439040707552 L 24.277555179777966,5.987513214418485 A 162.07957057758685 162.07957057758685 0 0 0 46.0260168215677,10.246447131871406 L 45.90138163174248,11.238649767151742 A 163.07957057758685 163.07957057758685 0 0 1 24.018736134675446,6.953439040707552 Z M 82.42214649812435,11.70407585201312 L 82.3228372371699,10.709019235187384 A 162.07957057758685 162.07957057758685 0 0 0 104.17277089828976,7.005709782509868 L 103.47041336064754,4.08908606846701 L 111.09528582066346,5.852979480351829 L 105.10924761514605,10.89454140123368 L 104.40689007750383,7.977917687190821 A 163.07957057758685 163.07957057758685 0 0 1 82.42214649812435,11.70407585201312"/><text text-anchor="middle" pointer-events="none" font-size="8px" fill="#000000" x="64.15506475984213" y="14.997039719332747" transform="rotate(180 64.15506475984213 11.997039719332747)" font-family="sans-serif">connect</text></g><g class="relationship" transform="translate(165.4024137866311 141.7001339521071) rotate(328.71481388470914)"><path class="outline" fill="#604A0E" stroke="none" d="M 24.018736134675446,6.953439040707552 L 24.277555179777966,5.987513214418485 A 180.35268034724453 180.35268034724453 0 0 0 50.648087168323734,10.985857796113521 L 50.53548459163062,11.979497901847026 A 181.35268034724453 181.35268034724453 0 0 1 24.018736134675446,6.953439040707552 Z M 87.06000390758774,12.41647746240838 L 86.9712059908003,11.42042780000483 A 180.35268034724453 180.35268034724453 0 0 0 113.4537731693525,7.054418002747468 L 112.74686641201575,4.138893549680466 L 120.37448135273164,5.890889644472891 L 114.39631551246816,10.941783940170138 L 113.68940875513141,8.026259487103136 A 181.35268034724453 181.35268034724453 0 0 1 87.06000390758774,12.41647746240838"/><text text-anchor="middle" pointer-events="none" font-size="8px" fill="#000000" x="68.79269601240124" y="15.61993976880322" font-family="sans-serif">connect</text></g><g class="relationship" transform="translate(294.91170420416535 -88.39090259216275) rotate(452.17110930831586)"><path class="outline" fill="#604A0E" stroke="none" d="M 24.018736134675446,6.953439040707552 L 24.277555179777966,5.987513214418485 A 200.81050577964297 200.81050577964297 0 0 0 55.839679302181224,11.789906664381078 L 55.73803392685193,12.784727360624458 A 201.81050577964297 201.81050577964297 0 0 1 24.018736134675446,6.953439040707552 Z M 92.2646020199195,13.193635841846486 L 92.18525301167121,12.196788945432587 A 200.81050577964297 200.81050577964297 0 0 0 123.86936439886827,7.102425936198652 L 123.15797394125593,4.187992266200637 L 130.78827470513235,5.928253813436183 L 124.81788500901806,10.988337496196007 L 124.10649455140572,8.073903826197991 A 201.81050577964297 201.81050577964297 0 0 1 92.2646020199195,13.193635841846486"/><text text-anchor="middle" pointer-events="none" font-size="8px" fill="#000000" x="73.99764416448406" y="16.31735193070861" transform="rotate(180 73.99764416448406 13.317351930708611)" font-family="sans-serif">connect</text></g><g class="relationship" transform="translate(283.04270709845866 216.85323076527783) rotate(272.28411142127214)"><path class="outline" fill="#604A0E" stroke="none" d="M 24.018736134675446,6.953439040707552 L 24.277555179777966,5.987513214418485 A 191.62362413382507 191.62362413382507 0 0 0 53.50636808322033,11.431484047842616 L 53.400081446559426,12.425819580179308 A 192.62362413382507 192.62362413382507 0 0 1 24.018736134675446,6.953439040707552 Z M 89.92593953958051,12.84688476987344 L 89.84260323535207,11.85036328972484 A 191.62362413382507 191.62362413382507 0 0 0 119.1891466909098,7.081641302580815 L 118.47969739990667,4.166734493865456 L 126.10883745974616,5.91207742502607 L 120.13507907891396,10.968183714201292 L 119.42562978791084,8.053276905485934 A 192.62362413382507 192.62362413382507 0 0 1 89.92593953958051,12.84688476987344"/><text text-anchor="middle" pointer-events="none" font-size="8px" fill="#000000" x="71.65877039243263" y="16.004165325982655" font-family="sans-serif">connect</text></g><g class="relationship" transform="translate(167.7404108055454 -6.255306339195371) rotate(327.1429631278638)"><path class="outline" fill="#604A0E" stroke="none" d="M 24.018736134675446,6.953439040707552 L 24.277555179777966,5.987513214418485 A 193.56931150280082 193.56931150280082 0 0 0 54.00028753223211,11.507730966134687 L 53.89501933732221,12.502174834404997 A 194.56931150280082 194.56931150280082 0 0 1 24.018736134675446,6.953439040707552 Z M 90.4210530084187,12.920606723656533 L 90.3385935838547,11.924012300984714 A 193.56931150280082 193.56931150280082 0 0 0 120.17998523124898,7.086144271696595 L 119.47011538672301,4.171339852214443 L 127.09950718412833,5.915582037716371 L 121.1264783572836,10.972550164339465 L 120.41660851275763,8.057745744857312 A 194.56931150280082 194.56931150280082 0 0 1 90.4210530084187,12.920606723656533"/><text text-anchor="middle" pointer-events="none" font-size="8px" fill="#000000" x="72.15392238103665" y="16.07049462101139" font-family="sans-serif">connect</text></g><g class="relationship" transform="translate(289.0368440791152 66.5729979877449) rotate(272.17110930831586)"><path class="outline" fill="#604A0E" stroke="none" d="M 24.018736134675446,6.953439040707552 L 24.277555179777966,5.987513214418485 A 200.81050577964297 200.81050577964297 0 0 0 55.839679302181224,11.789906664381078 L 55.73803392685193,12.784727360624458 A 201.81050577964297 201.81050577964297 0 0 1 24.018736134675446,6.953439040707552 Z M 92.2646020199195,13.193635841846486 L 92.18525301167121,12.196788945432587 A 200.81050577964297 200.81050577964297 0 0 0 123.86936439886827,7.102425936198652 L 123.15797394125593,4.187992266200637 L 130.78827470513235,5.928253813436183 L 124.81788500901806,10.988337496196007 L 124.10649455140572,8.073903826197991 A 201.81050577964297 201.81050577964297 0 0 1 92.2646020199195,13.193635841846486"/><text text-anchor="middle" pointer-events="none" font-size="8px" fill="#000000" x="73.99764416448406" y="16.31735193070861" font-family="sans-serif">connect</text></g><g class="relationship" transform="translate(406.87456199751307 -0.11705487580819351) rotate(218.25298155035375)"><path class="outline" fill="#604A0E" stroke="none" d="M 24.018736134675446,6.953439040707552 L 24.277555179777966,5.987513214418485 A 176.22837184300803 176.22837184300803 0 0 0 49.60349378688688,10.820953457723135 L 49.48838564566577,11.814306424107514 A 177.22837184300803 177.22837184300803 0 0 1 24.018736134675446,6.953439040707552 Z M 86.0122539581937,12.257406506807314 L 85.92127845754237,11.261553375928429 A 176.22837184300803 176.22837184300803 0 0 0 111.35702254964225,7.043943460603789 L 110.65109407713,4.128181983442715 L 118.27812074177012,5.882737270935392 L 112.29826051299192,10.931625430151888 L 111.59233204047966,8.015863952990815 A 177.22837184300803 177.22837184300803 0 0 1 86.0122539581937,12.257406506807314"/><text text-anchor="middle" pointer-events="none" font-size="8px" fill="#000000" x="67.74493948601396" y="15.479345324205326" transform="rotate(180 67.74493948601396 12.479345324205326)" font-family="sans-serif">connect</text></g><g class="relationship" transform="translate(167.7404108055454 -6.255306339195371) rotate(450.90531455412867)"><path class="outline" fill="#604A0E" stroke="none" d="M 24.018736134675446,6.953439040707552 L 24.277555179777966,5.987513214418485 A 186.85328980547519 186.85328980547519 0 0 0 52.29600701610946,11.243725709810377 L 52.18713690616083,12.237781693726674 A 187.85328980547519 187.85328980547519 0 0 1 24.018736134675446,6.953439040707552 Z M 88.71249951434211,12.665442200133128 L 88.62693404828352,11.669109649717285 A 186.85328980547519 186.85328980547519 0 0 0 116.76077358325753,7.070361328503274 L 116.05237778662432,4.155198314997443 L 123.68088658087667,5.9032983052767545 L 117.70530131210181,10.957245346511048 L 116.9969055154686,8.042082333005217 A 187.85328980547519 187.85328980547519 0 0 1 88.71249951434211,12.665442200133128"/><text text-anchor="middle" pointer-events="none" font-size="8px" fill="#000000" x="70.44525265844273" y="15.841543756912387" transform="rotate(180 70.44525265844273 12.841543756912387)" font-family="sans-serif">connect</text></g><g class="relationship" transform="translate(399.2769117433921 149.49411454698276) rotate(181.90870313845295)"><path class="outline" fill="#604A0E" stroke="none" d="M 24.018736134675446,6.953439040707552 L 24.277555179777966,5.987513214418485 A 354.96638959500723 354.96638959500723 0 0 0 95.27216597092169,17.468211083595293 L 95.2133506807441,18.466479966031955 A 355.96638959500723 355.96638959500723 0 0 1 24.018736134675446,6.953439040707552 Z M 131.7358824112797,18.74130755479763 L 131.69209663349667,17.742266611860884 A 354.96638959500723 354.96638959500723 0 0 0 202.8514398269445,7.331259877333093 L 202.1186789921994,4.422125717645083 L 209.76154633867404,6.106340289542525 L 203.82845427327132,11.210105423583773 L 203.0956934385262,8.300971263895763 A 355.96638959500723 355.96638959500723 0 0 1 131.7358824112797,18.74130755479763"/><text text-anchor="middle" pointer-events="none" font-size="8px" fill="#000000" x="113.47485175581653" y="21.5726361359836" transform="rotate(180 113.47485175581653 18.5726361359836)" font-family="sans-serif">connect</text></g><g class="relationship" transform="translate(289.0368440791152 66.5729979877449) rotate(508.71481388470914)"><path class="outline" fill="#604A0E" stroke="none" d="M 24.018736134675446,6.953439040707552 L 24.277555179777966,5.987513214418485 A 180.35268034724453 180.35268034724453 0 0 0 50.648087168323734,10.985857796113521 L 50.53548459163062,11.979497901847026 A 181.35268034724453 181.35268034724453 0 0 1 24.018736134675446,6.953439040707552 Z M 87.06000390758774,12.41647746240838 L 86.9712059908003,11.42042780000483 A 180.35268034724453 180.35268034724453 0 0 0 113.4537731693525,7.054418002747468 L 112.74686641201575,4.138893549680466 L 120.37448135273164,5.890889644472891 L 114.39631551246816,10.941783940170138 L 113.68940875513141,8.026259487103136 A 181.35268034724453 181.35268034724453 0 0 1 87.06000390758774,12.41647746240838"/><text text-anchor="middle" pointer-events="none" font-size="8px" fill="#000000" x="68.79269601240124" y="15.61993976880322" transform="rotate(180 68.79269601240124 12.61993976880322)" font-family="sans-serif">connect</text></g><g class="relationship" transform="translate(283.04270709845866 216.85323076527783) rotate(212.5719889879348)"><path class="outline" fill="#604A0E" stroke="none" d="M 24.018736134675446,6.953439040707552 L 24.277555179777966,5.987513214418485 A 170.35707650122245 170.35707650122245 0 0 0 48.11776111636122,10.58429636045841 L 47.99888463441024,11.577205410693608 A 171.35707650122245 171.35707650122245 0 0 1 24.018736134675446,6.953439040707552 Z M 84.52164470389917,12.029312155985053 L 84.42738286197574,11.03376471605202 A 170.35707650122245 170.35707650122245 0 0 0 108.37407124451654,7.028524411163747 L 107.66958286599095,4.112414652508837 L 115.29574207779892,5.8707364877132 L 109.31338908255066,10.91667075603696 L 108.60890070402506,8.000560997382049 A 171.35707650122245 171.35707650122245 0 0 1 84.52164470389917,12.029312155985053"/><text text-anchor="middle" pointer-events="none" font-size="8px" fill="#000000" x="66.25437309384141" y="15.279200790044314" transform="rotate(180 66.25437309384141 12.279200790044314)" font-family="sans-serif">connect</text></g><g class="relationship" transform="translate(89.39783191394355 68.60307390081364) rotate(403.8828585911227)"><path class="outline" fill="#604A0E" stroke="none" d="M 24.018736134675446,6.953439040707552 L 24.277555179777966,5.987513214418485 A 102.60443010885409 102.60443010885409 0 0 0 31.144290104418076,7.576824597862128 L 30.952395410606773,8.558240119691206 A 103.60443010885409 103.60443010885409 0 0 1 24.018736134675446,6.953439040707552 Z M 67.421835638614,9.147060561055568 L 67.26172376099115,8.159961687262225 A 102.60443010885409 102.60443010885409 0 0 0 74.17618692771981,6.793155806835816 L 73.49368273859906,3.8718225441229444 L 81.10638190556998,5.687534909339555 L 75.08619251321414,10.688266823786313 L 74.4036883240934,7.76693356107344 A 103.60443010885409 103.60443010885409 0 0 1 67.421835638614,9.147060561055568"/><text text-anchor="middle" pointer-events="none" font-size="8px" fill="#000000" x="49.16907141194415" y="12.970238389497055" font-family="sans-serif">connect</text></g><g class="relationship" transform="translate(89.39783191394355 68.60307390081364) rotate(316.30283433870716)"><path class="outline" fill="#604A0E" stroke="none" d="M 24.018736134675446,6.953439040707552 L 24.277555179777966,5.987513214418485 A 108.4156720687317 108.4156720687317 0 0 0 32.582105443204526,7.8665716237640595 L 32.39988556596181,8.84982943143082 A 109.4156720687317 109.4156720687317 0 0 1 24.018736134675446,6.953439040707552 Z M 68.87997833546996,9.423950469037166 L 68.72878991680975,8.435445505942383 A 108.4156720687317 108.4156720687317 0 0 0 77.08835774057741,6.818645770867827 L 76.4034725749125,3.8978697935200035 L 84.01764921533315,5.707376380540987 L 78.00153796146397,10.713013740664927 L 77.31665279579906,7.792237763317103 A 109.4156720687317 109.4156720687317 0 0 1 68.87997833546996,9.423950469037166"/><text text-anchor="middle" pointer-events="none" font-size="8px" fill="#000000" x="50.62370123823582" y="13.16820191792739" font-family="sans-serif">connect</text></g><g class="relationship" transform="translate(289.0368440791152 66.5729979877449) rotate(210.9812738916802)"><path class="outline" fill="#604A0E" stroke="none" d="M 24.018736134675446,6.953439040707552 L 24.277555179777966,5.987513214418485 A 174.0702859400712 174.0702859400712 0 0 0 49.057202763171205,10.734235139634762 L 48.94073798289665,11.727429961890493 A 175.0702859400712 175.0702859400712 0 0 1 24.018736134675446,6.953439040707552 Z M 85.46422522607041,12.1737996873741 L 85.37206815457237,11.178055205002778 A 174.0702859400712 174.0702859400712 0 0 0 110.26032074286502,7.038346701516269 L 109.5549149898789,4.1224587195022 L 117.1816269930622,5.878381274884331 L 111.20086174684651,10.926197344201695 L 110.49545599386039,8.010309362187625 A 175.0702859400712 175.0702859400712 0 0 1 85.46422522607041,12.1737996873741"/><text text-anchor="middle" pointer-events="none" font-size="8px" fill="#000000" x="67.19691884617362" y="15.405778606067145" transform="rotate(180 67.19691884617362 12.405778606067145)" font-family="sans-serif">connect</text></g><g class="relationship" transform="translate(165.4024137866311 141.7001339521071) rotate(270.90531455412867)"><path class="outline" fill="#604A0E" stroke="none" d="M 24.018736134675446,6.953439040707552 L 24.277555179777966,5.987513214418485 A 186.85328980547519 186.85328980547519 0 0 0 52.29600701610946,11.243725709810377 L 52.18713690616083,12.237781693726674 A 187.85328980547519 187.85328980547519 0 0 1 24.018736134675446,6.953439040707552 Z M 88.71249951434211,12.665442200133128 L 88.62693404828352,11.669109649717285 A 186.85328980547519 186.85328980547519 0 0 0 116.76077358325753,7.070361328503274 L 116.05237778662432,4.155198314997443 L 123.68088658087667,5.9032983052767545 L 117.70530131210181,10.957245346511048 L 116.9969055154686,8.042082333005217 A 187.85328980547519 187.85328980547519 0 0 1 88.71249951434211,12.665442200133128"/><text text-anchor="middle" pointer-events="none" font-size="8px" fill="#000000" x="70.44525265844273" y="15.841543756912387" font-family="sans-serif">connect</text></g><g class="relationship" transform="translate(294.91170420416535 -88.39090259216275) rotate(507.1429631278638)"><path class="outline" fill="#604A0E" stroke="none" d="M 24.018736134675446,6.953439040707552 L 24.277555179777966,5.987513214418485 A 193.56931150280082 193.56931150280082 0 0 0 54.00028753223211,11.507730966134687 L 53.89501933732221,12.502174834404997 A 194.56931150280082 194.56931150280082 0 0 1 24.018736134675446,6.953439040707552 Z M 90.4210530084187,12.920606723656533 L 90.3385935838547,11.924012300984714 A 193.56931150280082 193.56931150280082 0 0 0 120.17998523124898,7.086144271696595 L 119.47011538672301,4.171339852214443 L 127.09950718412833,5.915582037716371 L 121.1264783572836,10.972550164339465 L 120.41660851275763,8.057745744857312 A 194.56931150280082 194.56931150280082 0 0 1 90.4210530084187,12.920606723656533"/><text text-anchor="middle" pointer-events="none" font-size="8px" fill="#000000" x="72.15392238103665" y="16.07049462101139" transform="rotate(180 72.15392238103665 13.070494621011392)" font-family="sans-serif">connect</text></g><g class="relationship" transform="translate(406.87456199751307 -0.11705487580819351) rotate(181.4703825841853)"><path class="outline" fill="#604A0E" stroke="none" d="M 24.018736134675446,6.953439040707552 L 24.277555179777966,5.987513214418485 A 365.1003309848022 365.1003309848022 0 0 0 97.8755998827765,17.829488218668303 L 97.81836390527756,18.827848896419482 A 366.1003309848022 366.1003309848022 0 0 1 24.018736134675446,6.953439040707552 Z M 134.34039370324956,19.096853225016048 L 134.2978700610297,18.097757764185417 A 365.1003309848022 365.1003309848022 0 0 0 208.06236516948277,7.3411868653905925 L 207.32867733044338,4.432286359212066 L 214.9720809904059,6.114065325328395 L 209.04061562153532,11.219720873628628 L 208.30692778249593,8.310820367450102 A 366.1003309848022 366.1003309848022 0 0 1 134.34039370324956,19.096853225016048"/><text text-anchor="middle" pointer-events="none" font-size="8px" fill="#000000" x="116.07970482098789" y="21.91808860374283" transform="rotate(180 116.07970482098789 18.91808860374283)" font-family="sans-serif">connect</text></g><g class="relationship" transform="translate(165.4024137866311 141.7001339521071) rotate(223.88285859112273)"><path class="outline" fill="#604A0E" stroke="none" d="M 24.018736134675446,6.953439040707552 L 24.277555179777966,5.987513214418485 A 102.60443010885409 102.60443010885409 0 0 0 31.144290104418076,7.576824597862128 L 30.952395410606773,8.558240119691206 A 103.60443010885409 103.60443010885409 0 0 1 24.018736134675446,6.953439040707552 Z M 67.421835638614,9.147060561055568 L 67.26172376099115,8.159961687262225 A 102.60443010885409 102.60443010885409 0 0 0 74.17618692771981,6.793155806835816 L 73.49368273859906,3.8718225441229444 L 81.10638190556998,5.687534909339555 L 75.08619251321414,10.688266823786313 L 74.4036883240934,7.76693356107344 A 103.60443010885409 103.60443010885409 0 0 1 67.421835638614,9.147060561055568"/><text text-anchor="middle" pointer-events="none" font-size="8px" fill="#000000" x="49.16907141194415" y="12.970238389497055" transform="rotate(180 49.16907141194415 9.970238389497055)" font-family="sans-serif">connect</text></g><g class="relationship" transform="translate(-35.641690240054956 70.69808929185702) rotate(359.0401090195105)"><path class="outline" fill="#604A0E" stroke="none" d="M 24.018736134675446,6.953439040707552 L 24.277555179777966,5.987513214418485 A 141.62678419059074 141.62678419059074 0 0 0 40.87456280604435,9.385669124059433 L 40.73293210014701,10.375588688037737 A 142.62678419059074 142.62678419059074 0 0 1 24.018736134675446,6.953439040707552 Z M 77.24565361931947,10.877424831445182 L 77.13128246885874,9.883986740801248 A 141.62678419059074 141.62678419059074 0 0 0 93.81541273336575,6.9432516202008445 L 93.11888879483895,4.025229275690934 L 100.74021886031001,5.804366154389972 L 94.74411131806814,10.833948079547394 L 94.04758737954134,7.915925735037482 A 142.62678419059074 142.62678419059074 0 0 1 77.24565361931947,10.877424831445182"/><text text-anchor="middle" pointer-events="none" font-size="8px" fill="#000000" x="58.9800375521362" y="14.299906779457501" font-family="sans-serif">connect</text></g><g class="relationship" transform="translate(167.7404108055454 -6.255306339195371) rotate(496.30283433870716)"><path class="outline" fill="#604A0E" stroke="none" d="M 24.018736134675446,6.953439040707552 L 24.277555179777966,5.987513214418485 A 108.4156720687317 108.4156720687317 0 0 0 32.582105443204526,7.8665716237640595 L 32.39988556596181,8.84982943143082 A 109.4156720687317 109.4156720687317 0 0 1 24.018736134675446,6.953439040707552 Z M 68.87997833546996,9.423950469037166 L 68.72878991680975,8.435445505942383 A 108.4156720687317 108.4156720687317 0 0 0 77.08835774057741,6.818645770867827 L 76.4034725749125,3.8978697935200035 L 84.01764921533315,5.707376380540987 L 78.00153796146397,10.713013740664927 L 77.31665279579906,7.792237763317103 A 109.4156720687317 109.4156720687317 0 0 1 68.87997833546996,9.423950469037166"/><text text-anchor="middle" pointer-events="none" font-size="8px" fill="#000000" x="50.62370123823582" y="13.16820191792739" transform="rotate(180 50.62370123823582 10.16820191792739)" font-family="sans-serif">connect</text></g><g class="relationship" transform="translate(-169.27811409494515 70.47931170405198) rotate(360.09379943636026)"><path class="outline" fill="#604A0E" stroke="none" d="M 24.018736134675446,6.953439040707552 L 24.277555179777966,5.987513214418485 A 158.59687528977824 158.59687528977824 0 0 0 45.147022122143994,10.102673653552813 L 45.01979121144976,11.094546778183144 A 159.59687528977824 159.59687528977824 0 0 1 24.018736134675446,6.953439040707552 Z M 81.53953677600894,11.565807054446168 L 81.4379427457496,10.570981113381265 A 158.59687528977824 158.59687528977824 0 0 0 102.40664899604046,6.995711321137037 L 101.70522530286051,4.078862884442767 L 109.32953263052374,5.845197443166209 L 103.34188058694706,10.88484257006273 L 102.64045689376711,7.96799413336846 A 159.59687528977824 159.59687528977824 0 0 1 81.53953677600894,11.565807054446168"/><text text-anchor="middle" pointer-events="none" font-size="8px" fill="#000000" x="63.27259053633936" y="14.878325948082988" font-family="sans-serif">connect</text></g><g class="relationship" transform="translate(89.39783191394355 68.60307390081364) rotate(539.0401090195105)"><path class="outline" fill="#604A0E" stroke="none" d="M 24.018736134675446,6.953439040707552 L 24.277555179777966,5.987513214418485 A 141.62678419059074 141.62678419059074 0 0 0 40.87456280604435,9.385669124059433 L 40.73293210014701,10.375588688037737 A 142.62678419059074 142.62678419059074 0 0 1 24.018736134675446,6.953439040707552 Z M 77.24565361931947,10.877424831445182 L 77.13128246885874,9.883986740801248 A 141.62678419059074 141.62678419059074 0 0 0 93.81541273336575,6.9432516202008445 L 93.11888879483895,4.025229275690934 L 100.74021886031001,5.804366154389972 L 94.74411131806814,10.833948079547394 L 94.04758737954134,7.915925735037482 A 142.62678419059074 142.62678419059074 0 0 1 77.24565361931947,10.877424831445182"/><text text-anchor="middle" pointer-events="none" font-size="8px" fill="#000000" x="58.9800375521362" y="14.299906779457501" transform="rotate(180 58.9800375521362 11.299906779457501)" font-family="sans-serif">connect</text></g><g class="relationship" transform="translate(-35.641690240054956 70.69808929185702) rotate(180.09379943636026)"><path class="outline" fill="#604A0E" stroke="none" d="M 24.018736134675446,6.953439040707552 L 24.277555179777966,5.987513214418485 A 158.59687528977824 158.59687528977824 0 0 0 45.147022122143994,10.102673653552813 L 45.01979121144976,11.094546778183144 A 159.59687528977824 159.59687528977824 0 0 1 24.018736134675446,6.953439040707552 Z M 81.53953677600894,11.565807054446168 L 81.4379427457496,10.570981113381265 A 158.59687528977824 158.59687528977824 0 0 0 102.40664899604046,6.995711321137037 L 101.70522530286051,4.078862884442767 L 109.32953263052374,5.845197443166209 L 103.34188058694706,10.88484257006273 L 102.64045689376711,7.96799413336846 A 159.59687528977824 159.59687528977824 0 0 1 81.53953677600894,11.565807054446168"/><text text-anchor="middle" pointer-events="none" font-size="8px" fill="#000000" x="63.27259053633936" y="14.878325948082988" transform="rotate(180 63.27259053633936 11.878325948082988)" font-family="sans-serif">connect</text></g></g><g class="layer nodes"><g class="node" transform="translate(165.4024137866311,141.7001339521071)"><circle class="outline" cx="0" cy="0" r="25" fill="#F79767" stroke="#f36924" stroke-width="2px"/><text text-anchor="middle" pointer-events="none" font-family="sans-serif" dy="1.5625" font-size="25" fill="#FFFFFF"/><text text-anchor="middle" pointer-events="none" y="5" font-size="10px" fill="#FFFFFF" font-family="sans-serif"> 6</text></g><g class="node" transform="translate(399.2769117433921,149.49411454698276)"><circle class="outline" cx="0" cy="0" r="25" fill="#F79767" stroke="#f36924" stroke-width="2px"/><text text-anchor="middle" pointer-events="none" font-family="sans-serif" dy="1.5625" font-size="25" fill="#FFFFFF"/><text text-anchor="middle" pointer-events="none" y="5" font-size="10px" fill="#FFFFFF" font-family="sans-serif"> 1</text></g><g class="node" transform="translate(289.0368440791152,66.5729979877449)"><circle class="outline" cx="0" cy="0" r="25" fill="#F79767" stroke="#f36924" stroke-width="2px"/><text text-anchor="middle" pointer-events="none" font-family="sans-serif" dy="1.5625" font-size="25" fill="#FFFFFF"/><text text-anchor="middle" pointer-events="none" y="5" font-size="10px" fill="#FFFFFF" font-family="sans-serif"> 4</text></g><g class="node" transform="translate(283.04270709845866,216.85323076527783)"><circle class="outline" cx="0" cy="0" r="25" fill="#F79767" stroke="#f36924" stroke-width="2px"/><text text-anchor="middle" pointer-events="none" font-family="sans-serif" dy="1.5625" font-size="25" fill="#FFFFFF"/><text text-anchor="middle" pointer-events="none" y="5" font-size="10px" fill="#FFFFFF" font-family="sans-serif"> 3</text></g><g class="node" transform="translate(406.87456199751307,-0.11705487580819351)"><circle class="outline" cx="0" cy="0" r="25" fill="#F79767" stroke="#f36924" stroke-width="2px"/><text text-anchor="middle" pointer-events="none" font-family="sans-serif" dy="1.5625" font-size="25" fill="#FFFFFF"/><text text-anchor="middle" pointer-events="none" y="5" font-size="10px" fill="#FFFFFF" font-family="sans-serif"> 2</text></g><g class="node" transform="translate(167.7404108055454,-6.255306339195371)"><circle class="outline" cx="0" cy="0" r="25" fill="#F79767" stroke="#f36924" stroke-width="2px"/><text text-anchor="middle" pointer-events="none" font-family="sans-serif" dy="1.5625" font-size="25" fill="#FFFFFF"/><text text-anchor="middle" pointer-events="none" y="5" font-size="10px" fill="#FFFFFF" font-family="sans-serif"> 7</text></g><g class="node" transform="translate(294.91170420416535,-88.39090259216275)"><circle class="outline" cx="0" cy="0" r="25" fill="#F79767" stroke="#f36924" stroke-width="2px"/><text text-anchor="middle" pointer-events="none" font-family="sans-serif" dy="1.5625" font-size="25" fill="#FFFFFF"/><text text-anchor="middle" pointer-events="none" y="5" font-size="10px" fill="#FFFFFF" font-family="sans-serif"> 5</text></g><g class="node" transform="translate(89.39783191394355,68.60307390081364)"><circle class="outline" cx="0" cy="0" r="25" fill="#F79767" stroke="#f36924" stroke-width="2px"/><text text-anchor="middle" pointer-events="none" font-family="sans-serif" dy="1.5625" font-size="25" fill="#FFFFFF"/><text text-anchor="middle" pointer-events="none" y="5" font-size="10px" fill="#FFFFFF" font-family="sans-serif"> 8</text></g><g class="node" transform="translate(-35.641690240054956,70.69808929185702)"><circle class="outline" cx="0" cy="0" r="25" fill="#F79767" stroke="#f36924" stroke-width="2px"/><text text-anchor="middle" pointer-events="none" font-family="sans-serif" dy="1.5625" font-size="25" fill="#FFFFFF"/><text text-anchor="middle" pointer-events="none" y="5" font-size="10px" fill="#FFFFFF" font-family="sans-serif"> 9</text></g><g class="node" transform="translate(-169.27811409494515,70.47931170405198)"><circle class="outline" cx="0" cy="0" r="25" fill="#F79767" stroke="#f36924" stroke-width="2px"/><text text-anchor="middle" pointer-events="none" font-family="sans-serif" dy="1.5625" font-size="25" fill="#FFFFFF"/><text text-anchor="middle" pointer-events="none" y="5" font-size="10px" fill="#FFFFFF" font-family="sans-serif"> 10</text></g></g></svg>