<?xml version="1.0" encoding="utf-8" standalone="no"?>
<!DOCTYPE svg PUBLIC "-//W3C//DTD SVG 1.1//EN"
  "http://www.w3.org/Graphics/SVG/1.1/DTD/svg11.dtd">
<!-- Created with matplotlib (https://matplotlib.org/) -->
<svg height="400.438125pt" version="1.1" viewBox="0 0 763.63676 400.438125" width="763.63676pt" xmlns="http://www.w3.org/2000/svg" xmlns:xlink="http://www.w3.org/1999/xlink">
 <defs>
  <style type="text/css">
*{stroke-linecap:butt;stroke-linejoin:round;}
  </style>
 </defs>
 <g id="figure_1">
  <g id="patch_1">
   <path d="M 0 400.438125 
L 763.63676 400.438125 
L 763.63676 0 
L 0 0 
z
" style="fill:none;"/>
  </g>
  <g id="axes_1">
   <g id="patch_2">
    <path d="M 30.103125 376.56 
L 359.830398 376.56 
L 359.830398 50.4 
L 30.103125 50.4 
z
" style="fill:#ffffff;"/>
   </g>
   <g id="matplotlib.axis_1">
    <g id="xtick_1">
     <g id="line2d_1">
      <defs>
       <path d="M 0 0 
L 0 3.5 
" id="m032df9b9b8" style="stroke:#000000;stroke-width:0.8;"/>
      </defs>
      <g>
       <use style="stroke:#000000;stroke-width:0.8;" x="45.090728" xlink:href="#m032df9b9b8" y="376.56"/>
      </g>
     </g>
     <g id="text_1">
      <!-- 0 -->
      <defs>
       <path d="M 31.78125 66.40625 
Q 24.171875 66.40625 20.328125 58.90625 
Q 16.5 51.421875 16.5 36.375 
Q 16.5 21.390625 20.328125 13.890625 
Q 24.171875 6.390625 31.78125 6.390625 
Q 39.453125 6.390625 43.28125 13.890625 
Q 47.125 21.390625 47.125 36.375 
Q 47.125 51.421875 43.28125 58.90625 
Q 39.453125 66.40625 31.78125 66.40625 
z
M 31.78125 74.21875 
Q 44.046875 74.21875 50.515625 64.515625 
Q 56.984375 54.828125 56.984375 36.375 
Q 56.984375 17.96875 50.515625 8.265625 
Q 44.046875 -1.421875 31.78125 -1.421875 
Q 19.53125 -1.421875 13.0625 8.265625 
Q 6.59375 17.96875 6.59375 36.375 
Q 6.59375 54.828125 13.0625 64.515625 
Q 19.53125 74.21875 31.78125 74.21875 
z
" id="DejaVuSans-48"/>
      </defs>
      <g transform="translate(41.909478 391.158437)scale(0.1 -0.1)">
       <use xlink:href="#DejaVuSans-48"/>
      </g>
     </g>
    </g>
    <g id="xtick_2">
     <g id="line2d_2">
      <g>
       <use style="stroke:#000000;stroke-width:0.8;" x="82.56161" xlink:href="#m032df9b9b8" y="376.56"/>
      </g>
     </g>
     <g id="text_2">
      <!-- 2500 -->
      <defs>
       <path d="M 19.1875 8.296875 
L 53.609375 8.296875 
L 53.609375 0 
L 7.328125 0 
L 7.328125 8.296875 
Q 12.9375 14.109375 22.625 23.890625 
Q 32.328125 33.6875 34.8125 36.53125 
Q 39.546875 41.84375 41.421875 45.53125 
Q 43.3125 49.21875 43.3125 52.78125 
Q 43.3125 58.59375 39.234375 62.25 
Q 35.15625 65.921875 28.609375 65.921875 
Q 23.96875 65.921875 18.8125 64.3125 
Q 13.671875 62.703125 7.8125 59.421875 
L 7.8125 69.390625 
Q 13.765625 71.78125 18.9375 73 
Q 24.125 74.21875 28.421875 74.21875 
Q 39.75 74.21875 46.484375 68.546875 
Q 53.21875 62.890625 53.21875 53.421875 
Q 53.21875 48.921875 51.53125 44.890625 
Q 49.859375 40.875 45.40625 35.40625 
Q 44.1875 33.984375 37.640625 27.21875 
Q 31.109375 20.453125 19.1875 8.296875 
z
" id="DejaVuSans-50"/>
       <path d="M 10.796875 72.90625 
L 49.515625 72.90625 
L 49.515625 64.59375 
L 19.828125 64.59375 
L 19.828125 46.734375 
Q 21.96875 47.46875 24.109375 47.828125 
Q 26.265625 48.1875 28.421875 48.1875 
Q 40.625 48.1875 47.75 41.5 
Q 54.890625 34.8125 54.890625 23.390625 
Q 54.890625 11.625 47.5625 5.09375 
Q 40.234375 -1.421875 26.90625 -1.421875 
Q 22.3125 -1.421875 17.546875 -0.640625 
Q 12.796875 0.140625 7.71875 1.703125 
L 7.71875 11.625 
Q 12.109375 9.234375 16.796875 8.0625 
Q 21.484375 6.890625 26.703125 6.890625 
Q 35.15625 6.890625 40.078125 11.328125 
Q 45.015625 15.765625 45.015625 23.390625 
Q 45.015625 31 40.078125 35.4375 
Q 35.15625 39.890625 26.703125 39.890625 
Q 22.75 39.890625 18.8125 39.015625 
Q 14.890625 38.140625 10.796875 36.28125 
z
" id="DejaVuSans-53"/>
      </defs>
      <g transform="translate(69.83661 391.158437)scale(0.1 -0.1)">
       <use xlink:href="#DejaVuSans-50"/>
       <use x="63.623047" xlink:href="#DejaVuSans-53"/>
       <use x="127.246094" xlink:href="#DejaVuSans-48"/>
       <use x="190.869141" xlink:href="#DejaVuSans-48"/>
      </g>
     </g>
    </g>
    <g id="xtick_3">
     <g id="line2d_3">
      <g>
       <use style="stroke:#000000;stroke-width:0.8;" x="120.032492" xlink:href="#m032df9b9b8" y="376.56"/>
      </g>
     </g>
     <g id="text_3">
      <!-- 5000 -->
      <g transform="translate(107.307492 391.158437)scale(0.1 -0.1)">
       <use xlink:href="#DejaVuSans-53"/>
       <use x="63.623047" xlink:href="#DejaVuSans-48"/>
       <use x="127.246094" xlink:href="#DejaVuSans-48"/>
       <use x="190.869141" xlink:href="#DejaVuSans-48"/>
      </g>
     </g>
    </g>
    <g id="xtick_4">
     <g id="line2d_4">
      <g>
       <use style="stroke:#000000;stroke-width:0.8;" x="157.503374" xlink:href="#m032df9b9b8" y="376.56"/>
      </g>
     </g>
     <g id="text_4">
      <!-- 7500 -->
      <defs>
       <path d="M 8.203125 72.90625 
L 55.078125 72.90625 
L 55.078125 68.703125 
L 28.609375 0 
L 18.3125 0 
L 43.21875 64.59375 
L 8.203125 64.59375 
z
" id="DejaVuSans-55"/>
      </defs>
      <g transform="translate(144.778374 391.158437)scale(0.1 -0.1)">
       <use xlink:href="#DejaVuSans-55"/>
       <use x="63.623047" xlink:href="#DejaVuSans-53"/>
       <use x="127.246094" xlink:href="#DejaVuSans-48"/>
       <use x="190.869141" xlink:href="#DejaVuSans-48"/>
      </g>
     </g>
    </g>
    <g id="xtick_5">
     <g id="line2d_5">
      <g>
       <use style="stroke:#000000;stroke-width:0.8;" x="194.974256" xlink:href="#m032df9b9b8" y="376.56"/>
      </g>
     </g>
     <g id="text_5">
      <!-- 10000 -->
      <defs>
       <path d="M 12.40625 8.296875 
L 28.515625 8.296875 
L 28.515625 63.921875 
L 10.984375 60.40625 
L 10.984375 69.390625 
L 28.421875 72.90625 
L 38.28125 72.90625 
L 38.28125 8.296875 
L 54.390625 8.296875 
L 54.390625 0 
L 12.40625 0 
z
" id="DejaVuSans-49"/>
      </defs>
      <g transform="translate(179.068006 391.158437)scale(0.1 -0.1)">
       <use xlink:href="#DejaVuSans-49"/>
       <use x="63.623047" xlink:href="#DejaVuSans-48"/>
       <use x="127.246094" xlink:href="#DejaVuSans-48"/>
       <use x="190.869141" xlink:href="#DejaVuSans-48"/>
       <use x="254.492188" xlink:href="#DejaVuSans-48"/>
      </g>
     </g>
    </g>
    <g id="xtick_6">
     <g id="line2d_6">
      <g>
       <use style="stroke:#000000;stroke-width:0.8;" x="232.445137" xlink:href="#m032df9b9b8" y="376.56"/>
      </g>
     </g>
     <g id="text_6">
      <!-- 12500 -->
      <g transform="translate(216.538887 391.158437)scale(0.1 -0.1)">
       <use xlink:href="#DejaVuSans-49"/>
       <use x="63.623047" xlink:href="#DejaVuSans-50"/>
       <use x="127.246094" xlink:href="#DejaVuSans-53"/>
       <use x="190.869141" xlink:href="#DejaVuSans-48"/>
       <use x="254.492188" xlink:href="#DejaVuSans-48"/>
      </g>
     </g>
    </g>
    <g id="xtick_7">
     <g id="line2d_7">
      <g>
       <use style="stroke:#000000;stroke-width:0.8;" x="269.916019" xlink:href="#m032df9b9b8" y="376.56"/>
      </g>
     </g>
     <g id="text_7">
      <!-- 15000 -->
      <g transform="translate(254.009769 391.158437)scale(0.1 -0.1)">
       <use xlink:href="#DejaVuSans-49"/>
       <use x="63.623047" xlink:href="#DejaVuSans-53"/>
       <use x="127.246094" xlink:href="#DejaVuSans-48"/>
       <use x="190.869141" xlink:href="#DejaVuSans-48"/>
       <use x="254.492188" xlink:href="#DejaVuSans-48"/>
      </g>
     </g>
    </g>
    <g id="xtick_8">
     <g id="line2d_8">
      <g>
       <use style="stroke:#000000;stroke-width:0.8;" x="307.386901" xlink:href="#m032df9b9b8" y="376.56"/>
      </g>
     </g>
     <g id="text_8">
      <!-- 17500 -->
      <g transform="translate(291.480651 391.158437)scale(0.1 -0.1)">
       <use xlink:href="#DejaVuSans-49"/>
       <use x="63.623047" xlink:href="#DejaVuSans-55"/>
       <use x="127.246094" xlink:href="#DejaVuSans-53"/>
       <use x="190.869141" xlink:href="#DejaVuSans-48"/>
       <use x="254.492188" xlink:href="#DejaVuSans-48"/>
      </g>
     </g>
    </g>
    <g id="xtick_9">
     <g id="line2d_9">
      <g>
       <use style="stroke:#000000;stroke-width:0.8;" x="344.857783" xlink:href="#m032df9b9b8" y="376.56"/>
      </g>
     </g>
     <g id="text_9">
      <!-- 20000 -->
      <g transform="translate(328.951533 391.158437)scale(0.1 -0.1)">
       <use xlink:href="#DejaVuSans-50"/>
       <use x="63.623047" xlink:href="#DejaVuSans-48"/>
       <use x="127.246094" xlink:href="#DejaVuSans-48"/>
       <use x="190.869141" xlink:href="#DejaVuSans-48"/>
       <use x="254.492188" xlink:href="#DejaVuSans-48"/>
      </g>
     </g>
    </g>
   </g>
   <g id="matplotlib.axis_2">
    <g id="ytick_1">
     <g id="line2d_10">
      <defs>
       <path d="M 0 0 
L -3.5 0 
" id="me22305cad5" style="stroke:#000000;stroke-width:0.8;"/>
      </defs>
      <g>
       <use style="stroke:#000000;stroke-width:0.8;" x="30.103125" xlink:href="#me22305cad5" y="338.926154"/>
      </g>
     </g>
     <g id="text_10">
      <!-- 0.6 -->
      <defs>
       <path d="M 10.6875 12.40625 
L 21 12.40625 
L 21 0 
L 10.6875 0 
z
" id="DejaVuSans-46"/>
       <path d="M 33.015625 40.375 
Q 26.375 40.375 22.484375 35.828125 
Q 18.609375 31.296875 18.609375 23.390625 
Q 18.609375 15.53125 22.484375 10.953125 
Q 26.375 6.390625 33.015625 6.390625 
Q 39.65625 6.390625 43.53125 10.953125 
Q 47.40625 15.53125 47.40625 23.390625 
Q 47.40625 31.296875 43.53125 35.828125 
Q 39.65625 40.375 33.015625 40.375 
z
M 52.59375 71.296875 
L 52.59375 62.3125 
Q 48.875 64.0625 45.09375 64.984375 
Q 41.3125 65.921875 37.59375 65.921875 
Q 27.828125 65.921875 22.671875 59.328125 
Q 17.53125 52.734375 16.796875 39.40625 
Q 19.671875 43.65625 24.015625 45.921875 
Q 28.375 48.1875 33.59375 48.1875 
Q 44.578125 48.1875 50.953125 41.515625 
Q 57.328125 34.859375 57.328125 23.390625 
Q 57.328125 12.15625 50.6875 5.359375 
Q 44.046875 -1.421875 33.015625 -1.421875 
Q 20.359375 -1.421875 13.671875 8.265625 
Q 6.984375 17.96875 6.984375 36.375 
Q 6.984375 53.65625 15.1875 63.9375 
Q 23.390625 74.21875 37.203125 74.21875 
Q 40.921875 74.21875 44.703125 73.484375 
Q 48.484375 72.75 52.59375 71.296875 
z
" id="DejaVuSans-54"/>
      </defs>
      <g transform="translate(7.2 342.725373)scale(0.1 -0.1)">
       <use xlink:href="#DejaVuSans-48"/>
       <use x="63.623047" xlink:href="#DejaVuSans-46"/>
       <use x="95.410156" xlink:href="#DejaVuSans-54"/>
      </g>
     </g>
    </g>
    <g id="ytick_2">
     <g id="line2d_11">
      <g>
       <use style="stroke:#000000;stroke-width:0.8;" x="30.103125" xlink:href="#me22305cad5" y="267.64993"/>
      </g>
     </g>
     <g id="text_11">
      <!-- 0.7 -->
      <g transform="translate(7.2 271.449149)scale(0.1 -0.1)">
       <use xlink:href="#DejaVuSans-48"/>
       <use x="63.623047" xlink:href="#DejaVuSans-46"/>
       <use x="95.410156" xlink:href="#DejaVuSans-55"/>
      </g>
     </g>
    </g>
    <g id="ytick_3">
     <g id="line2d_12">
      <g>
       <use style="stroke:#000000;stroke-width:0.8;" x="30.103125" xlink:href="#me22305cad5" y="196.373706"/>
      </g>
     </g>
     <g id="text_12">
      <!-- 0.8 -->
      <defs>
       <path d="M 31.78125 34.625 
Q 24.75 34.625 20.71875 30.859375 
Q 16.703125 27.09375 16.703125 20.515625 
Q 16.703125 13.921875 20.71875 10.15625 
Q 24.75 6.390625 31.78125 6.390625 
Q 38.8125 6.390625 42.859375 10.171875 
Q 46.921875 13.96875 46.921875 20.515625 
Q 46.921875 27.09375 42.890625 30.859375 
Q 38.875 34.625 31.78125 34.625 
z
M 21.921875 38.8125 
Q 15.578125 40.375 12.03125 44.71875 
Q 8.5 49.078125 8.5 55.328125 
Q 8.5 64.0625 14.71875 69.140625 
Q 20.953125 74.21875 31.78125 74.21875 
Q 42.671875 74.21875 48.875 69.140625 
Q 55.078125 64.0625 55.078125 55.328125 
Q 55.078125 49.078125 51.53125 44.71875 
Q 48 40.375 41.703125 38.8125 
Q 48.828125 37.15625 52.796875 32.3125 
Q 56.78125 27.484375 56.78125 20.515625 
Q 56.78125 9.90625 50.3125 4.234375 
Q 43.84375 -1.421875 31.78125 -1.421875 
Q 19.734375 -1.421875 13.25 4.234375 
Q 6.78125 9.90625 6.78125 20.515625 
Q 6.78125 27.484375 10.78125 32.3125 
Q 14.796875 37.15625 21.921875 38.8125 
z
M 18.3125 54.390625 
Q 18.3125 48.734375 21.84375 45.5625 
Q 25.390625 42.390625 31.78125 42.390625 
Q 38.140625 42.390625 41.71875 45.5625 
Q 45.3125 48.734375 45.3125 54.390625 
Q 45.3125 60.0625 41.71875 63.234375 
Q 38.140625 66.40625 31.78125 66.40625 
Q 25.390625 66.40625 21.84375 63.234375 
Q 18.3125 60.0625 18.3125 54.390625 
z
" id="DejaVuSans-56"/>
      </defs>
      <g transform="translate(7.2 200.172925)scale(0.1 -0.1)">
       <use xlink:href="#DejaVuSans-48"/>
       <use x="63.623047" xlink:href="#DejaVuSans-46"/>
       <use x="95.410156" xlink:href="#DejaVuSans-56"/>
      </g>
     </g>
    </g>
    <g id="ytick_4">
     <g id="line2d_13">
      <g>
       <use style="stroke:#000000;stroke-width:0.8;" x="30.103125" xlink:href="#me22305cad5" y="125.097483"/>
      </g>
     </g>
     <g id="text_13">
      <!-- 0.9 -->
      <defs>
       <path d="M 10.984375 1.515625 
L 10.984375 10.5 
Q 14.703125 8.734375 18.5 7.8125 
Q 22.3125 6.890625 25.984375 6.890625 
Q 35.75 6.890625 40.890625 13.453125 
Q 46.046875 20.015625 46.78125 33.40625 
Q 43.953125 29.203125 39.59375 26.953125 
Q 35.25 24.703125 29.984375 24.703125 
Q 19.046875 24.703125 12.671875 31.3125 
Q 6.296875 37.9375 6.296875 49.421875 
Q 6.296875 60.640625 12.9375 67.421875 
Q 19.578125 74.21875 30.609375 74.21875 
Q 43.265625 74.21875 49.921875 64.515625 
Q 56.59375 54.828125 56.59375 36.375 
Q 56.59375 19.140625 48.40625 8.859375 
Q 40.234375 -1.421875 26.421875 -1.421875 
Q 22.703125 -1.421875 18.890625 -0.6875 
Q 15.09375 0.046875 10.984375 1.515625 
z
M 30.609375 32.421875 
Q 37.25 32.421875 41.125 36.953125 
Q 45.015625 41.5 45.015625 49.421875 
Q 45.015625 57.28125 41.125 61.84375 
Q 37.25 66.40625 30.609375 66.40625 
Q 23.96875 66.40625 20.09375 61.84375 
Q 16.21875 57.28125 16.21875 49.421875 
Q 16.21875 41.5 20.09375 36.953125 
Q 23.96875 32.421875 30.609375 32.421875 
z
" id="DejaVuSans-57"/>
      </defs>
      <g transform="translate(7.2 128.896701)scale(0.1 -0.1)">
       <use xlink:href="#DejaVuSans-48"/>
       <use x="63.623047" xlink:href="#DejaVuSans-46"/>
       <use x="95.410156" xlink:href="#DejaVuSans-57"/>
      </g>
     </g>
    </g>
    <g id="ytick_5">
     <g id="line2d_14">
      <g>
       <use style="stroke:#000000;stroke-width:0.8;" x="30.103125" xlink:href="#me22305cad5" y="53.821259"/>
      </g>
     </g>
     <g id="text_14">
      <!-- 1.0 -->
      <g transform="translate(7.2 57.620477)scale(0.1 -0.1)">
       <use xlink:href="#DejaVuSans-49"/>
       <use x="63.623047" xlink:href="#DejaVuSans-46"/>
       <use x="95.410156" xlink:href="#DejaVuSans-48"/>
      </g>
     </g>
    </g>
   </g>
   <g id="line2d_15">
    <path clip-path="url(#p5aa4570b59)" d="M 45.090728 361.734545 
L 45.16567 328.947483 
L 45.225623 338.926154 
L 45.405484 358.883497 
L 45.540379 361.734545 
L 45.690262 356.032448 
L 45.825158 358.883497 
L 45.855134 358.883497 
L 45.990029 351.755874 
L 46.034995 351.755874 
L 46.109936 354.606923 
L 46.139913 351.755874 
L 46.16989 351.755874 
L 46.364738 341.777203 
L 46.394715 344.628252 
L 46.469657 341.777203 
L 46.484645 341.777203 
L 46.499633 343.202727 
L 46.544599 337.500629 
L 46.634529 337.500629 
L 46.784412 333.224056 
L 46.799401 334.64958 
L 46.829377 331.798531 
L 46.874342 331.798531 
L 46.904319 331.798531 
L 46.949284 333.224056 
L 46.979261 330.373007 
L 46.994249 330.373007 
L 47.144133 326.096434 
L 47.159121 326.096434 
L 47.323993 320.394336 
L 47.368958 320.394336 
L 47.518841 316.117762 
L 47.668725 316.117762 
L 47.788632 311.841189 
L 47.833597 311.841189 
L 48.028445 303.288042 
L 48.07341 303.288042 
L 48.208306 299.011469 
L 48.253271 300.436993 
L 48.298236 297.585944 
L 48.313224 297.585944 
L 48.418143 294.734895 
L 48.538049 299.011469 
L 48.568026 299.011469 
L 48.62798 294.734895 
L 48.702921 296.16042 
L 48.867793 296.16042 
L 48.912758 300.436993 
L 48.9877 297.585944 
L 49.107607 297.585944 
L 49.227514 296.16042 
L 49.34742 297.585944 
L 49.527281 297.585944 
L 49.647188 293.309371 
L 49.662176 293.309371 
L 49.827048 299.011469 
L 50.006908 299.011469 
L 50.141803 301.862517 
L 50.186768 301.862517 
L 50.336652 310.415664 
L 50.411594 310.415664 
L 50.501524 311.841189 
L 50.516512 310.415664 
L 50.546489 310.415664 
L 50.62143 311.841189 
L 50.651407 310.415664 
L 50.681384 310.415664 
L 50.846256 316.117762 
L 50.876232 314.692238 
L 50.951174 316.117762 
L 50.966163 316.117762 
L 51.011128 317.543287 
L 51.041104 314.692238 
L 51.056093 314.692238 
L 51.131034 314.692238 
L 51.250941 317.543287 
L 51.35586 316.117762 
L 51.430802 320.394336 
L 51.475767 317.543287 
L 51.490755 317.543287 
L 51.565697 320.394336 
L 51.595673 317.543287 
L 51.71558 317.543287 
L 51.775534 311.841189 
L 51.865464 313.266713 
L 52.000359 313.266713 
L 52.150242 308.99014 
L 52.165231 308.99014 
L 52.195207 310.415664 
L 52.225184 307.564615 
L 52.255161 307.564615 
L 52.285138 307.564615 
L 52.300126 306.139091 
L 52.360079 308.99014 
L 52.375068 308.99014 
L 52.554928 308.99014 
L 52.689823 297.585944 
L 52.7198 300.436993 
L 52.749777 296.16042 
L 52.764765 296.16042 
L 52.98959 284.756224 
L 53.019567 284.756224 
L 53.034555 286.181748 
L 53.124485 284.756224 
L 53.139474 284.756224 
L 53.244392 277.628601 
L 53.304346 279.054126 
L 53.349311 279.054126 
L 53.514183 273.352028 
L 53.529171 273.352028 
L 53.649078 269.075455 
L 53.664066 269.075455 
L 53.694043 267.64993 
L 53.768985 269.075455 
L 53.81395 269.075455 
L 53.963833 264.798881 
L 53.978821 264.798881 
L 54.113717 261.947832 
L 54.128705 261.947832 
L 54.323554 253.394685 
L 54.383507 253.394685 
L 54.578356 244.841538 
L 54.593344 244.841538 
L 54.728239 241.99049 
L 54.743227 241.99049 
L 54.908099 236.288392 
L 54.923088 236.288392 
L 55.072971 227.735245 
L 55.08796 227.735245 
L 55.162901 226.30972 
L 55.192878 227.735245 
L 55.207866 227.735245 
L 55.35775 223.458671 
L 55.402715 223.458671 
L 55.53761 216.331049 
L 55.582575 216.331049 
L 55.71747 213.48 
L 55.747447 213.48 
L 55.777424 212.054476 
L 55.837377 213.48 
L 55.957284 214.905524 
L 55.987261 213.48 
L 56.017237 216.331049 
L 56.032226 216.331049 
L 56.107168 220.607622 
L 56.167121 219.182098 
L 56.242063 217.756573 
L 56.272039 219.182098 
L 56.406935 222.033147 
L 56.4519 222.033147 
L 56.481876 220.607622 
L 56.496865 223.458671 
L 56.54183 223.458671 
L 56.661737 223.458671 
L 56.676725 222.033147 
L 56.72169 224.884196 
L 56.751667 224.884196 
L 56.796632 224.884196 
L 56.81162 227.735245 
L 56.90155 224.884196 
L 56.976492 224.884196 
L 57.111387 220.607622 
L 57.276259 226.30972 
L 57.396166 226.30972 
L 57.546049 233.437343 
L 57.561038 232.011818 
L 57.606003 232.011818 
L 57.620991 233.437343 
L 57.710921 232.011818 
L 57.72591 232.011818 
L 57.860805 234.862867 
L 57.920758 232.011818 
L 57.950735 233.437343 
L 58.025677 236.288392 
L 58.055653 233.437343 
L 58.130595 234.862867 
L 58.160572 233.437343 
L 58.26549 230.586294 
L 58.280479 232.011818 
L 58.385397 232.011818 
L 58.490316 226.30972 
L 58.505304 227.735245 
L 58.520292 229.160769 
L 58.550269 226.30972 
L 58.595234 226.30972 
L 58.790083 226.30972 
L 58.880013 227.735245 
L 58.895001 226.30972 
L 59.014908 226.30972 
L 59.134815 224.884196 
L 59.404605 224.884196 
L 59.44957 226.30972 
L 59.509524 224.884196 
L 59.524512 224.884196 
L 59.644419 226.30972 
L 59.719361 226.30972 
L 59.839267 224.884196 
L 59.884232 224.884196 
L 59.899221 223.458671 
L 59.989151 224.884196 
L 60.124046 224.884196 
L 60.169011 222.033147 
L 60.228965 223.458671 
L 60.528732 223.458671 
L 60.603673 222.033147 
L 60.63365 223.458671 
L 60.678615 223.458671 
L 60.798522 222.033147 
L 60.81351 222.033147 
L 60.933417 224.884196 
L 60.963394 224.884196 
L 61.083301 223.458671 
L 61.128266 224.884196 
L 61.188219 223.458671 
L 61.338103 219.182098 
L 61.458009 219.182098 
L 61.592905 216.331049 
L 61.7278 216.331049 
L 61.847707 214.905524 
L 61.877683 214.905524 
L 61.99759 213.48 
L 62.207427 213.48 
L 62.327334 210.628951 
L 62.462229 207.777902 
L 62.567148 207.777902 
L 62.702043 210.628951 
L 62.806961 210.628951 
L 62.926868 209.203427 
L 62.941856 209.203427 
L 63.076752 206.352378 
L 63.166682 206.352378 
L 63.301577 203.501329 
L 63.436472 203.501329 
L 63.556379 202.075804 
L 63.601344 202.075804 
L 63.721251 200.65028 
L 63.766216 200.65028 
L 63.916099 196.373706 
L 64.006029 196.373706 
L 64.140925 193.522657 
L 64.230855 193.522657 
L 64.380738 189.246084 
L 64.410715 189.246084 
L 64.575587 183.543986 
L 64.680505 183.543986 
L 64.875354 174.990839 
L 65.010249 174.990839 
L 65.160133 170.714266 
L 65.205098 170.714266 
L 65.325004 169.288741 
L 65.339993 169.288741 
L 65.504865 163.586643 
L 65.534841 165.012168 
L 65.609783 163.586643 
L 65.654748 163.586643 
L 65.864585 153.607972 
L 65.879574 153.607972 
L 65.924539 155.033497 
L 65.984492 153.607972 
L 66.149364 153.607972 
L 66.269271 152.182448 
L 66.329224 152.182448 
L 66.464119 149.331399 
L 66.539061 149.331399 
L 66.658968 150.756923 
L 66.73391 150.756923 
L 66.868805 153.607972 
L 66.91377 153.607972 
L 67.168572 139.352727 
L 67.288479 139.352727 
L 67.408386 136.501678 
L 67.513304 137.927203 
L 67.663188 133.650629 
L 67.693164 135.076154 
L 67.768106 133.650629 
L 67.873024 130.79958 
L 67.91799 133.650629 
L 67.977943 130.79958 
L 68.112838 130.79958 
L 68.157803 129.374056 
L 68.217757 130.79958 
L 68.247733 130.79958 
L 68.36764 129.374056 
L 68.592465 129.374056 
L 68.712372 127.948531 
L 68.952186 127.948531 
L 69.072093 126.523007 
L 69.266941 126.523007 
L 69.356871 125.097483 
L 69.37186 126.523007 
L 69.596685 126.523007 
L 69.716592 125.097483 
L 69.776545 125.097483 
L 69.896452 126.523007 
L 70.001371 126.523007 
L 70.121277 125.097483 
L 70.406056 125.097483 
L 70.525963 126.523007 
L 70.765777 126.523007 
L 70.780765 127.948531 
L 70.870695 126.523007 
L 71.035567 126.523007 
L 71.155474 125.097483 
L 71.215427 125.097483 
L 71.335334 126.523007 
L 71.455241 126.523007 
L 71.575148 127.948531 
L 71.680066 127.948531 
L 71.814961 125.097483 
L 71.91988 125.097483 
L 72.054775 122.246434 
L 72.969064 122.246434 
L 73.088971 120.820909 
L 74.587806 120.820909 
L 74.707713 119.395385 
L 74.91755 119.395385 
L 75.037457 120.820909 
L 76.581257 120.820909 
L 76.701164 122.246434 
L 76.836059 122.246434 
L 76.970955 119.395385 
L 77.030908 119.395385 
L 77.150815 117.96986 
L 80.748019 117.96986 
L 80.867926 116.544336 
L 81.992053 116.544336 
L 82.11196 115.118811 
L 82.771447 115.118811 
L 82.891354 113.693287 
L 83.176133 113.693287 
L 83.296039 112.267762 
L 84.030469 112.267762 
L 84.150376 110.842238 
L 86.728372 110.842238 
L 86.848279 109.416713 
L 87.822522 109.416713 
L 87.942429 107.991189 
L 88.796765 107.991189 
L 88.916672 106.565664 
L 89.471241 106.565664 
L 89.591148 105.14014 
L 89.815973 105.14014 
L 89.93588 103.714615 
L 90.775227 103.714615 
L 90.895134 102.289091 
L 91.045018 102.289091 
L 91.164925 100.863566 
L 91.674529 100.863566 
L 91.794435 99.438042 
L 92.304039 99.438042 
L 92.423946 98.012517 
L 94.087653 98.012517 
L 94.20756 96.586993 
L 94.522316 96.586993 
L 94.657211 93.735944 
L 94.986955 93.735944 
L 95.106861 92.31042 
L 95.586489 92.31042 
L 95.721384 89.459371 
L 97.265184 89.459371 
L 97.385091 88.033846 
L 98.449264 88.033846 
L 98.569171 86.608322 
L 98.719054 86.608322 
L 98.838961 85.182797 
L 98.958868 85.182797 
L 99.078775 83.757273 
L 99.153717 83.757273 
L 99.3036 79.480699 
L 99.873158 79.480699 
L 99.993064 78.055175 
L 100.57761 78.055175 
L 100.697517 76.62965 
L 101.926562 76.62965 
L 102.046469 78.055175 
L 102.226329 78.055175 
L 102.346236 76.62965 
L 103.155607 76.62965 
L 103.275514 75.204126 
L 103.365444 75.204126 
L 103.485351 73.778601 
L 104.729384 73.778601 
L 104.849291 72.353077 
L 106.692858 72.353077 
L 106.812765 70.927552 
L 113.212791 70.927552 
L 113.332698 69.502028 
L 122.205803 69.502028 
L 122.32571 68.076503 
L 124.244219 68.076503 
L 124.364126 69.502028 
L 127.796459 69.502028 
L 127.916365 70.927552 
L 131.6035 70.927552 
L 131.723407 69.502028 
L 141.390895 69.502028 
L 141.510801 68.076503 
L 149.244791 68.076503 
L 149.364698 69.502028 
L 159.197058 69.502028 
L 159.316964 68.076503 
L 161.939926 68.076503 
L 162.059833 66.650979 
L 166.391467 66.650979 
L 166.511374 65.225455 
L 172.701563 65.225455 
L 172.82147 66.650979 
L 174.769956 66.650979 
L 174.889863 68.076503 
L 177.317976 68.076503 
L 177.437883 66.650979 
L 198.316658 66.650979 
L 198.436565 65.225455 
L 246.669084 65.225455 
L 246.788991 66.650979 
L 277.125417 66.650979 
L 277.245324 65.225455 
L 297.65946 65.225455 
L 297.779367 66.650979 
L 313.831893 66.650979 
L 313.951799 65.225455 
L 344.842794 65.225455 
L 344.842794 65.225455 
" style="fill:none;stroke:#1f77b4;stroke-linecap:square;stroke-width:1.5;"/>
   </g>
   <g id="patch_3">
    <path d="M 30.103125 376.56 
L 30.103125 50.4 
" style="fill:none;stroke:#000000;stroke-linecap:square;stroke-linejoin:miter;stroke-width:0.8;"/>
   </g>
   <g id="patch_4">
    <path d="M 359.830398 376.56 
L 359.830398 50.4 
" style="fill:none;stroke:#000000;stroke-linecap:square;stroke-linejoin:miter;stroke-width:0.8;"/>
   </g>
   <g id="patch_5">
    <path d="M 30.103125 376.56 
L 359.830398 376.56 
" style="fill:none;stroke:#000000;stroke-linecap:square;stroke-linejoin:miter;stroke-width:0.8;"/>
   </g>
   <g id="patch_6">
    <path d="M 30.103125 50.4 
L 359.830398 50.4 
" style="fill:none;stroke:#000000;stroke-linecap:square;stroke-linejoin:miter;stroke-width:0.8;"/>
   </g>
   <g id="text_15">
    <!-- Accuracies -->
    <defs>
     <path d="M 34.1875 63.1875 
L 20.796875 26.90625 
L 47.609375 26.90625 
z
M 28.609375 72.90625 
L 39.796875 72.90625 
L 67.578125 0 
L 57.328125 0 
L 50.6875 18.703125 
L 17.828125 18.703125 
L 11.1875 0 
L 0.78125 0 
z
" id="DejaVuSans-65"/>
     <path d="M 48.78125 52.59375 
L 48.78125 44.1875 
Q 44.96875 46.296875 41.140625 47.34375 
Q 37.3125 48.390625 33.40625 48.390625 
Q 24.65625 48.390625 19.8125 42.84375 
Q 14.984375 37.3125 14.984375 27.296875 
Q 14.984375 17.28125 19.8125 11.734375 
Q 24.65625 6.203125 33.40625 6.203125 
Q 37.3125 6.203125 41.140625 7.25 
Q 44.96875 8.296875 48.78125 10.40625 
L 48.78125 2.09375 
Q 45.015625 0.34375 40.984375 -0.53125 
Q 36.96875 -1.421875 32.421875 -1.421875 
Q 20.0625 -1.421875 12.78125 6.34375 
Q 5.515625 14.109375 5.515625 27.296875 
Q 5.515625 40.671875 12.859375 48.328125 
Q 20.21875 56 33.015625 56 
Q 37.15625 56 41.109375 55.140625 
Q 45.0625 54.296875 48.78125 52.59375 
z
" id="DejaVuSans-99"/>
     <path d="M 8.5 21.578125 
L 8.5 54.6875 
L 17.484375 54.6875 
L 17.484375 21.921875 
Q 17.484375 14.15625 20.5 10.265625 
Q 23.53125 6.390625 29.59375 6.390625 
Q 36.859375 6.390625 41.078125 11.03125 
Q 45.3125 15.671875 45.3125 23.6875 
L 45.3125 54.6875 
L 54.296875 54.6875 
L 54.296875 0 
L 45.3125 0 
L 45.3125 8.40625 
Q 42.046875 3.421875 37.71875 1 
Q 33.40625 -1.421875 27.6875 -1.421875 
Q 18.265625 -1.421875 13.375 4.4375 
Q 8.5 10.296875 8.5 21.578125 
z
M 31.109375 56 
z
" id="DejaVuSans-117"/>
     <path d="M 41.109375 46.296875 
Q 39.59375 47.171875 37.8125 47.578125 
Q 36.03125 48 33.890625 48 
Q 26.265625 48 22.1875 43.046875 
Q 18.109375 38.09375 18.109375 28.8125 
L 18.109375 0 
L 9.078125 0 
L 9.078125 54.6875 
L 18.109375 54.6875 
L 18.109375 46.1875 
Q 20.953125 51.171875 25.484375 53.578125 
Q 30.03125 56 36.53125 56 
Q 37.453125 56 38.578125 55.875 
Q 39.703125 55.765625 41.0625 55.515625 
z
" id="DejaVuSans-114"/>
     <path d="M 34.28125 27.484375 
Q 23.390625 27.484375 19.1875 25 
Q 14.984375 22.515625 14.984375 16.5 
Q 14.984375 11.71875 18.140625 8.90625 
Q 21.296875 6.109375 26.703125 6.109375 
Q 34.1875 6.109375 38.703125 11.40625 
Q 43.21875 16.703125 43.21875 25.484375 
L 43.21875 27.484375 
z
M 52.203125 31.203125 
L 52.203125 0 
L 43.21875 0 
L 43.21875 8.296875 
Q 40.140625 3.328125 35.546875 0.953125 
Q 30.953125 -1.421875 24.3125 -1.421875 
Q 15.921875 -1.421875 10.953125 3.296875 
Q 6 8.015625 6 15.921875 
Q 6 25.140625 12.171875 29.828125 
Q 18.359375 34.515625 30.609375 34.515625 
L 43.21875 34.515625 
L 43.21875 35.40625 
Q 43.21875 41.609375 39.140625 45 
Q 35.0625 48.390625 27.6875 48.390625 
Q 23 48.390625 18.546875 47.265625 
Q 14.109375 46.140625 10.015625 43.890625 
L 10.015625 52.203125 
Q 14.9375 54.109375 19.578125 55.046875 
Q 24.21875 56 28.609375 56 
Q 40.484375 56 46.34375 49.84375 
Q 52.203125 43.703125 52.203125 31.203125 
z
" id="DejaVuSans-97"/>
     <path d="M 9.421875 54.6875 
L 18.40625 54.6875 
L 18.40625 0 
L 9.421875 0 
z
M 9.421875 75.984375 
L 18.40625 75.984375 
L 18.40625 64.59375 
L 9.421875 64.59375 
z
" id="DejaVuSans-105"/>
     <path d="M 56.203125 29.59375 
L 56.203125 25.203125 
L 14.890625 25.203125 
Q 15.484375 15.921875 20.484375 11.0625 
Q 25.484375 6.203125 34.421875 6.203125 
Q 39.59375 6.203125 44.453125 7.46875 
Q 49.3125 8.734375 54.109375 11.28125 
L 54.109375 2.78125 
Q 49.265625 0.734375 44.1875 -0.34375 
Q 39.109375 -1.421875 33.890625 -1.421875 
Q 20.796875 -1.421875 13.15625 6.1875 
Q 5.515625 13.8125 5.515625 26.8125 
Q 5.515625 40.234375 12.765625 48.109375 
Q 20.015625 56 32.328125 56 
Q 43.359375 56 49.78125 48.890625 
Q 56.203125 41.796875 56.203125 29.59375 
z
M 47.21875 32.234375 
Q 47.125 39.59375 43.09375 43.984375 
Q 39.0625 48.390625 32.421875 48.390625 
Q 24.90625 48.390625 20.390625 44.140625 
Q 15.875 39.890625 15.1875 32.171875 
z
" id="DejaVuSans-101"/>
     <path d="M 44.28125 53.078125 
L 44.28125 44.578125 
Q 40.484375 46.53125 36.375 47.5 
Q 32.28125 48.484375 27.875 48.484375 
Q 21.1875 48.484375 17.84375 46.4375 
Q 14.5 44.390625 14.5 40.28125 
Q 14.5 37.15625 16.890625 35.375 
Q 19.28125 33.59375 26.515625 31.984375 
L 29.59375 31.296875 
Q 39.15625 29.25 43.1875 25.515625 
Q 47.21875 21.78125 47.21875 15.09375 
Q 47.21875 7.46875 41.1875 3.015625 
Q 35.15625 -1.421875 24.609375 -1.421875 
Q 20.21875 -1.421875 15.453125 -0.5625 
Q 10.6875 0.296875 5.421875 2 
L 5.421875 11.28125 
Q 10.40625 8.6875 15.234375 7.390625 
Q 20.0625 6.109375 24.8125 6.109375 
Q 31.15625 6.109375 34.5625 8.28125 
Q 37.984375 10.453125 37.984375 14.40625 
Q 37.984375 18.0625 35.515625 20.015625 
Q 33.0625 21.96875 24.703125 23.78125 
L 21.578125 24.515625 
Q 13.234375 26.265625 9.515625 29.90625 
Q 5.8125 33.546875 5.8125 39.890625 
Q 5.8125 47.609375 11.28125 51.796875 
Q 16.75 56 26.8125 56 
Q 31.78125 56 36.171875 55.265625 
Q 40.578125 54.546875 44.28125 53.078125 
z
" id="DejaVuSans-115"/>
    </defs>
    <g transform="translate(162.535824 44.4)scale(0.12 -0.12)">
     <use xlink:href="#DejaVuSans-65"/>
     <use x="68.392578" xlink:href="#DejaVuSans-99"/>
     <use x="123.373047" xlink:href="#DejaVuSans-99"/>
     <use x="178.353516" xlink:href="#DejaVuSans-117"/>
     <use x="241.732422" xlink:href="#DejaVuSans-114"/>
     <use x="282.845703" xlink:href="#DejaVuSans-97"/>
     <use x="344.125" xlink:href="#DejaVuSans-99"/>
     <use x="399.105469" xlink:href="#DejaVuSans-105"/>
     <use x="426.888672" xlink:href="#DejaVuSans-101"/>
     <use x="488.412109" xlink:href="#DejaVuSans-115"/>
    </g>
   </g>
  </g>
  <g id="axes_2">
   <g id="patch_7">
    <path d="M 425.775852 376.56 
L 755.503125 376.56 
L 755.503125 50.4 
L 425.775852 50.4 
z
" style="fill:#ffffff;"/>
   </g>
   <g id="matplotlib.axis_3">
    <g id="xtick_10">
     <g id="line2d_16">
      <g>
       <use style="stroke:#000000;stroke-width:0.8;" x="440.763456" xlink:href="#m032df9b9b8" y="376.56"/>
      </g>
     </g>
     <g id="text_16">
      <!-- 0 -->
      <g transform="translate(437.582206 391.158437)scale(0.1 -0.1)">
       <use xlink:href="#DejaVuSans-48"/>
      </g>
     </g>
    </g>
    <g id="xtick_11">
     <g id="line2d_17">
      <g>
       <use style="stroke:#000000;stroke-width:0.8;" x="478.234337" xlink:href="#m032df9b9b8" y="376.56"/>
      </g>
     </g>
     <g id="text_17">
      <!-- 2500 -->
      <g transform="translate(465.509337 391.158437)scale(0.1 -0.1)">
       <use xlink:href="#DejaVuSans-50"/>
       <use x="63.623047" xlink:href="#DejaVuSans-53"/>
       <use x="127.246094" xlink:href="#DejaVuSans-48"/>
       <use x="190.869141" xlink:href="#DejaVuSans-48"/>
      </g>
     </g>
    </g>
    <g id="xtick_12">
     <g id="line2d_18">
      <g>
       <use style="stroke:#000000;stroke-width:0.8;" x="515.705219" xlink:href="#m032df9b9b8" y="376.56"/>
      </g>
     </g>
     <g id="text_18">
      <!-- 5000 -->
      <g transform="translate(502.980219 391.158437)scale(0.1 -0.1)">
       <use xlink:href="#DejaVuSans-53"/>
       <use x="63.623047" xlink:href="#DejaVuSans-48"/>
       <use x="127.246094" xlink:href="#DejaVuSans-48"/>
       <use x="190.869141" xlink:href="#DejaVuSans-48"/>
      </g>
     </g>
    </g>
    <g id="xtick_13">
     <g id="line2d_19">
      <g>
       <use style="stroke:#000000;stroke-width:0.8;" x="553.176101" xlink:href="#m032df9b9b8" y="376.56"/>
      </g>
     </g>
     <g id="text_19">
      <!-- 7500 -->
      <g transform="translate(540.451101 391.158437)scale(0.1 -0.1)">
       <use xlink:href="#DejaVuSans-55"/>
       <use x="63.623047" xlink:href="#DejaVuSans-53"/>
       <use x="127.246094" xlink:href="#DejaVuSans-48"/>
       <use x="190.869141" xlink:href="#DejaVuSans-48"/>
      </g>
     </g>
    </g>
    <g id="xtick_14">
     <g id="line2d_20">
      <g>
       <use style="stroke:#000000;stroke-width:0.8;" x="590.646983" xlink:href="#m032df9b9b8" y="376.56"/>
      </g>
     </g>
     <g id="text_20">
      <!-- 10000 -->
      <g transform="translate(574.740733 391.158437)scale(0.1 -0.1)">
       <use xlink:href="#DejaVuSans-49"/>
       <use x="63.623047" xlink:href="#DejaVuSans-48"/>
       <use x="127.246094" xlink:href="#DejaVuSans-48"/>
       <use x="190.869141" xlink:href="#DejaVuSans-48"/>
       <use x="254.492188" xlink:href="#DejaVuSans-48"/>
      </g>
     </g>
    </g>
    <g id="xtick_15">
     <g id="line2d_21">
      <g>
       <use style="stroke:#000000;stroke-width:0.8;" x="628.117865" xlink:href="#m032df9b9b8" y="376.56"/>
      </g>
     </g>
     <g id="text_21">
      <!-- 12500 -->
      <g transform="translate(612.211615 391.158437)scale(0.1 -0.1)">
       <use xlink:href="#DejaVuSans-49"/>
       <use x="63.623047" xlink:href="#DejaVuSans-50"/>
       <use x="127.246094" xlink:href="#DejaVuSans-53"/>
       <use x="190.869141" xlink:href="#DejaVuSans-48"/>
       <use x="254.492188" xlink:href="#DejaVuSans-48"/>
      </g>
     </g>
    </g>
    <g id="xtick_16">
     <g id="line2d_22">
      <g>
       <use style="stroke:#000000;stroke-width:0.8;" x="665.588746" xlink:href="#m032df9b9b8" y="376.56"/>
      </g>
     </g>
     <g id="text_22">
      <!-- 15000 -->
      <g transform="translate(649.682496 391.158437)scale(0.1 -0.1)">
       <use xlink:href="#DejaVuSans-49"/>
       <use x="63.623047" xlink:href="#DejaVuSans-53"/>
       <use x="127.246094" xlink:href="#DejaVuSans-48"/>
       <use x="190.869141" xlink:href="#DejaVuSans-48"/>
       <use x="254.492188" xlink:href="#DejaVuSans-48"/>
      </g>
     </g>
    </g>
    <g id="xtick_17">
     <g id="line2d_23">
      <g>
       <use style="stroke:#000000;stroke-width:0.8;" x="703.059628" xlink:href="#m032df9b9b8" y="376.56"/>
      </g>
     </g>
     <g id="text_23">
      <!-- 17500 -->
      <g transform="translate(687.153378 391.158437)scale(0.1 -0.1)">
       <use xlink:href="#DejaVuSans-49"/>
       <use x="63.623047" xlink:href="#DejaVuSans-55"/>
       <use x="127.246094" xlink:href="#DejaVuSans-53"/>
       <use x="190.869141" xlink:href="#DejaVuSans-48"/>
       <use x="254.492188" xlink:href="#DejaVuSans-48"/>
      </g>
     </g>
    </g>
    <g id="xtick_18">
     <g id="line2d_24">
      <g>
       <use style="stroke:#000000;stroke-width:0.8;" x="740.53051" xlink:href="#m032df9b9b8" y="376.56"/>
      </g>
     </g>
     <g id="text_24">
      <!-- 20000 -->
      <g transform="translate(724.62426 391.158437)scale(0.1 -0.1)">
       <use xlink:href="#DejaVuSans-50"/>
       <use x="63.623047" xlink:href="#DejaVuSans-48"/>
       <use x="127.246094" xlink:href="#DejaVuSans-48"/>
       <use x="190.869141" xlink:href="#DejaVuSans-48"/>
       <use x="254.492188" xlink:href="#DejaVuSans-48"/>
      </g>
     </g>
    </g>
   </g>
   <g id="matplotlib.axis_4">
    <g id="ytick_6">
     <g id="line2d_25">
      <g>
       <use style="stroke:#000000;stroke-width:0.8;" x="425.775852" xlink:href="#me22305cad5" y="354.151456"/>
      </g>
     </g>
     <g id="text_25">
      <!-- 2.5 -->
      <g transform="translate(402.872727 357.950675)scale(0.1 -0.1)">
       <use xlink:href="#DejaVuSans-50"/>
       <use x="63.623047" xlink:href="#DejaVuSans-46"/>
       <use x="95.410156" xlink:href="#DejaVuSans-53"/>
      </g>
     </g>
    </g>
    <g id="ytick_7">
     <g id="line2d_26">
      <g>
       <use style="stroke:#000000;stroke-width:0.8;" x="425.775852" xlink:href="#me22305cad5" y="292.411984"/>
      </g>
     </g>
     <g id="text_26">
      <!-- 3.0 -->
      <defs>
       <path d="M 40.578125 39.3125 
Q 47.65625 37.796875 51.625 33 
Q 55.609375 28.21875 55.609375 21.1875 
Q 55.609375 10.40625 48.1875 4.484375 
Q 40.765625 -1.421875 27.09375 -1.421875 
Q 22.515625 -1.421875 17.65625 -0.515625 
Q 12.796875 0.390625 7.625 2.203125 
L 7.625 11.71875 
Q 11.71875 9.328125 16.59375 8.109375 
Q 21.484375 6.890625 26.8125 6.890625 
Q 36.078125 6.890625 40.9375 10.546875 
Q 45.796875 14.203125 45.796875 21.1875 
Q 45.796875 27.640625 41.28125 31.265625 
Q 36.765625 34.90625 28.71875 34.90625 
L 20.21875 34.90625 
L 20.21875 43.015625 
L 29.109375 43.015625 
Q 36.375 43.015625 40.234375 45.921875 
Q 44.09375 48.828125 44.09375 54.296875 
Q 44.09375 59.90625 40.109375 62.90625 
Q 36.140625 65.921875 28.71875 65.921875 
Q 24.65625 65.921875 20.015625 65.03125 
Q 15.375 64.15625 9.8125 62.3125 
L 9.8125 71.09375 
Q 15.4375 72.65625 20.34375 73.4375 
Q 25.25 74.21875 29.59375 74.21875 
Q 40.828125 74.21875 47.359375 69.109375 
Q 53.90625 64.015625 53.90625 55.328125 
Q 53.90625 49.265625 50.4375 45.09375 
Q 46.96875 40.921875 40.578125 39.3125 
z
" id="DejaVuSans-51"/>
      </defs>
      <g transform="translate(402.872727 296.211203)scale(0.1 -0.1)">
       <use xlink:href="#DejaVuSans-51"/>
       <use x="63.623047" xlink:href="#DejaVuSans-46"/>
       <use x="95.410156" xlink:href="#DejaVuSans-48"/>
      </g>
     </g>
    </g>
    <g id="ytick_8">
     <g id="line2d_27">
      <g>
       <use style="stroke:#000000;stroke-width:0.8;" x="425.775852" xlink:href="#me22305cad5" y="230.672512"/>
      </g>
     </g>
     <g id="text_27">
      <!-- 3.5 -->
      <g transform="translate(402.872727 234.471731)scale(0.1 -0.1)">
       <use xlink:href="#DejaVuSans-51"/>
       <use x="63.623047" xlink:href="#DejaVuSans-46"/>
       <use x="95.410156" xlink:href="#DejaVuSans-53"/>
      </g>
     </g>
    </g>
    <g id="ytick_9">
     <g id="line2d_28">
      <g>
       <use style="stroke:#000000;stroke-width:0.8;" x="425.775852" xlink:href="#me22305cad5" y="168.93304"/>
      </g>
     </g>
     <g id="text_28">
      <!-- 4.0 -->
      <defs>
       <path d="M 37.796875 64.3125 
L 12.890625 25.390625 
L 37.796875 25.390625 
z
M 35.203125 72.90625 
L 47.609375 72.90625 
L 47.609375 25.390625 
L 58.015625 25.390625 
L 58.015625 17.1875 
L 47.609375 17.1875 
L 47.609375 0 
L 37.796875 0 
L 37.796875 17.1875 
L 4.890625 17.1875 
L 4.890625 26.703125 
z
" id="DejaVuSans-52"/>
      </defs>
      <g transform="translate(402.872727 172.732259)scale(0.1 -0.1)">
       <use xlink:href="#DejaVuSans-52"/>
       <use x="63.623047" xlink:href="#DejaVuSans-46"/>
       <use x="95.410156" xlink:href="#DejaVuSans-48"/>
      </g>
     </g>
    </g>
    <g id="ytick_10">
     <g id="line2d_29">
      <g>
       <use style="stroke:#000000;stroke-width:0.8;" x="425.775852" xlink:href="#me22305cad5" y="107.193568"/>
      </g>
     </g>
     <g id="text_29">
      <!-- 4.5 -->
      <g transform="translate(402.872727 110.992787)scale(0.1 -0.1)">
       <use xlink:href="#DejaVuSans-52"/>
       <use x="63.623047" xlink:href="#DejaVuSans-46"/>
       <use x="95.410156" xlink:href="#DejaVuSans-53"/>
      </g>
     </g>
    </g>
   </g>
   <g id="line2d_30">
    <path clip-path="url(#pe65ab587d3)" d="M 440.763456 65.225455 
L 440.913339 66.455853 
L 441.333013 66.923762 
L 442.142384 67.519497 
L 443.896021 68.451649 
L 445.244973 69.302697 
L 446.174251 70.153496 
L 446.968634 71.189169 
L 447.703063 72.523846 
L 448.437492 74.348086 
L 449.201898 76.887286 
L 450.041246 80.504911 
L 451.045466 85.906647 
L 452.394417 94.505727 
L 455.766797 116.573108 
L 456.935888 122.030208 
L 458.179921 127.988345 
L 458.914351 132.720835 
L 459.678757 139.204934 
L 460.757918 150.565689 
L 462.541532 169.167894 
L 463.605705 177.884893 
L 464.65489 184.691068 
L 465.74904 190.360218 
L 466.948108 195.411417 
L 468.282071 200.076588 
L 469.810883 204.613398 
L 471.624474 209.288862 
L 474.142517 215.117016 
L 481.456833 231.249304 
L 483.495249 235.038515 
L 486.85264 241.153287 
L 487.931802 243.734158 
L 489.100893 247.155785 
L 494.002084 262.296821 
L 495.815675 266.777869 
L 497.719196 270.892792 
L 499.742624 274.740961 
L 501.930923 278.426834 
L 504.329059 282.028731 
L 506.952021 285.565184 
L 509.814797 289.050673 
L 512.917386 292.477523 
L 516.259788 295.837259 
L 519.827016 299.107252 
L 523.619069 302.281203 
L 527.635948 305.353112 
L 531.907628 308.338501 
L 536.449099 311.239125 
L 541.290337 314.065411 
L 546.476307 316.833222 
L 552.036986 319.547106 
L 558.032327 322.223274 
L 564.492307 324.860896 
L 571.47688 327.469894 
L 579.045998 330.057295 
L 587.30458 332.642371 
L 596.372534 335.244155 
L 606.384753 337.881552 
L 617.476134 340.569477 
L 629.781572 343.319268 
L 643.405984 346.132378 
L 658.379349 348.993772 
L 674.716653 351.886659 
L 692.432886 354.795231 
L 711.543036 357.704736 
L 732.092067 360.605944 
L 740.515522 361.734545 
L 740.515522 361.734545 
" style="fill:none;stroke:#1f77b4;stroke-linecap:square;stroke-width:1.5;"/>
   </g>
   <g id="patch_8">
    <path d="M 425.775852 376.56 
L 425.775852 50.4 
" style="fill:none;stroke:#000000;stroke-linecap:square;stroke-linejoin:miter;stroke-width:0.8;"/>
   </g>
   <g id="patch_9">
    <path d="M 755.503125 376.56 
L 755.503125 50.4 
" style="fill:none;stroke:#000000;stroke-linecap:square;stroke-linejoin:miter;stroke-width:0.8;"/>
   </g>
   <g id="patch_10">
    <path d="M 425.775852 376.56 
L 755.503125 376.56 
" style="fill:none;stroke:#000000;stroke-linecap:square;stroke-linejoin:miter;stroke-width:0.8;"/>
   </g>
   <g id="patch_11">
    <path d="M 425.775852 50.4 
L 755.503125 50.4 
" style="fill:none;stroke:#000000;stroke-linecap:square;stroke-linejoin:miter;stroke-width:0.8;"/>
   </g>
   <g id="text_30">
    <!-- Loss -->
    <defs>
     <path d="M 9.8125 72.90625 
L 19.671875 72.90625 
L 19.671875 8.296875 
L 55.171875 8.296875 
L 55.171875 0 
L 9.8125 0 
z
" id="DejaVuSans-76"/>
     <path d="M 30.609375 48.390625 
Q 23.390625 48.390625 19.1875 42.75 
Q 14.984375 37.109375 14.984375 27.296875 
Q 14.984375 17.484375 19.15625 11.84375 
Q 23.34375 6.203125 30.609375 6.203125 
Q 37.796875 6.203125 41.984375 11.859375 
Q 46.1875 17.53125 46.1875 27.296875 
Q 46.1875 37.015625 41.984375 42.703125 
Q 37.796875 48.390625 30.609375 48.390625 
z
M 30.609375 56 
Q 42.328125 56 49.015625 48.375 
Q 55.71875 40.765625 55.71875 27.296875 
Q 55.71875 13.875 49.015625 6.21875 
Q 42.328125 -1.421875 30.609375 -1.421875 
Q 18.84375 -1.421875 12.171875 6.21875 
Q 5.515625 13.875 5.515625 27.296875 
Q 5.515625 40.765625 12.171875 48.375 
Q 18.84375 56 30.609375 56 
z
" id="DejaVuSans-111"/>
    </defs>
    <g transform="translate(577.374801 44.4)scale(0.12 -0.12)">
     <use xlink:href="#DejaVuSans-76"/>
     <use x="55.697266" xlink:href="#DejaVuSans-111"/>
     <use x="116.878906" xlink:href="#DejaVuSans-115"/>
     <use x="168.978516" xlink:href="#DejaVuSans-115"/>
    </g>
   </g>
  </g>
  <g id="text_31">
   <!-- Accuracies and Loss -->
   <defs>
    <path id="DejaVuSans-32"/>
    <path d="M 54.890625 33.015625 
L 54.890625 0 
L 45.90625 0 
L 45.90625 32.71875 
Q 45.90625 40.484375 42.875 44.328125 
Q 39.84375 48.1875 33.796875 48.1875 
Q 26.515625 48.1875 22.3125 43.546875 
Q 18.109375 38.921875 18.109375 30.90625 
L 18.109375 0 
L 9.078125 0 
L 9.078125 54.6875 
L 18.109375 54.6875 
L 18.109375 46.1875 
Q 21.34375 51.125 25.703125 53.5625 
Q 30.078125 56 35.796875 56 
Q 45.21875 56 50.046875 50.171875 
Q 54.890625 44.34375 54.890625 33.015625 
z
" id="DejaVuSans-110"/>
    <path d="M 45.40625 46.390625 
L 45.40625 75.984375 
L 54.390625 75.984375 
L 54.390625 0 
L 45.40625 0 
L 45.40625 8.203125 
Q 42.578125 3.328125 38.25 0.953125 
Q 33.9375 -1.421875 27.875 -1.421875 
Q 17.96875 -1.421875 11.734375 6.484375 
Q 5.515625 14.40625 5.515625 27.296875 
Q 5.515625 40.1875 11.734375 48.09375 
Q 17.96875 56 27.875 56 
Q 33.9375 56 38.25 53.625 
Q 42.578125 51.265625 45.40625 46.390625 
z
M 14.796875 27.296875 
Q 14.796875 17.390625 18.875 11.75 
Q 22.953125 6.109375 30.078125 6.109375 
Q 37.203125 6.109375 41.296875 11.75 
Q 45.40625 17.390625 45.40625 27.296875 
Q 45.40625 37.203125 41.296875 42.84375 
Q 37.203125 48.484375 30.078125 48.484375 
Q 22.953125 48.484375 18.875 42.84375 
Q 14.796875 37.203125 14.796875 27.296875 
z
" id="DejaVuSans-100"/>
   </defs>
   <g transform="translate(320.305312 16.318125)scale(0.12 -0.12)">
    <use xlink:href="#DejaVuSans-65"/>
    <use x="68.392578" xlink:href="#DejaVuSans-99"/>
    <use x="123.373047" xlink:href="#DejaVuSans-99"/>
    <use x="178.353516" xlink:href="#DejaVuSans-117"/>
    <use x="241.732422" xlink:href="#DejaVuSans-114"/>
    <use x="282.845703" xlink:href="#DejaVuSans-97"/>
    <use x="344.125" xlink:href="#DejaVuSans-99"/>
    <use x="399.105469" xlink:href="#DejaVuSans-105"/>
    <use x="426.888672" xlink:href="#DejaVuSans-101"/>
    <use x="488.412109" xlink:href="#DejaVuSans-115"/>
    <use x="540.511719" xlink:href="#DejaVuSans-32"/>
    <use x="572.298828" xlink:href="#DejaVuSans-97"/>
    <use x="633.578125" xlink:href="#DejaVuSans-110"/>
    <use x="696.957031" xlink:href="#DejaVuSans-100"/>
    <use x="760.433594" xlink:href="#DejaVuSans-32"/>
    <use x="792.220703" xlink:href="#DejaVuSans-76"/>
    <use x="847.917969" xlink:href="#DejaVuSans-111"/>
    <use x="909.099609" xlink:href="#DejaVuSans-115"/>
    <use x="961.199219" xlink:href="#DejaVuSans-115"/>
   </g>
  </g>
 </g>
 <defs>
  <clipPath id="p5aa4570b59">
   <rect height="326.16" width="329.727273" x="30.103125" y="50.4"/>
  </clipPath>
  <clipPath id="pe65ab587d3">
   <rect height="326.16" width="329.727273" x="425.775852" y="50.4"/>
  </clipPath>
 </defs>
</svg>
