<svg xmlns="http://www.w3.org/2000/svg" width="700.4005737304688" height="514.8009643554688" viewBox="-287.27850341796875 -118.7766342163086 700.4005737304688 514.8009643554688"><title>Neo4j Graph Visualization</title><desc>Created using Neo4j (http://www.neo4j.com/)</desc><g class="layer relationships"><g class="relationship" transform="translate(202.66702936090257 266.8713839025422) rotate(228.99043935890148)"><path class="outline" fill="#A5ABB6" stroke="none" d="M 25 0.5 L 36.06781746418614 0.5 L 36.06781746418614 -0.5 L 25 -0.5 Z M 82.88422371418613 0.5 L 93.95204117837228 0.5 L 93.95204117837228 3.5 L 100.95204117837228 0 L 93.95204117837228 -3.5 L 93.95204117837228 -0.5 L 82.88422371418613 -0.5 Z"/><text text-anchor="middle" pointer-events="none" font-size="8px" fill="#000000" x="59.47602058918614" y="3" transform="rotate(180 59.47602058918614 0)" font-family="sans-serif">settlement</text></g><g class="relationship" transform="translate(264.54290425345874 170.67609163860024) rotate(372.41630613853005)"><path class="outline" fill="#A5ABB6" stroke="none" d="M 25 0.5 L 34.31327396865423 0.5 L 34.31327396865423 -0.5 L 25 -0.5 Z M 81.12968021865423 0.5 L 90.44295418730846 0.5 L 90.44295418730846 3.5 L 97.44295418730846 0 L 90.44295418730846 -3.5 L 90.44295418730846 -0.5 L 81.12968021865423 -0.5 Z"/><text text-anchor="middle" pointer-events="none" font-size="8px" fill="#000000" x="57.72147709365423" y="3" font-family="sans-serif">settlement</text></g><g class="relationship" transform="translate(264.54290425345874 170.67609163860024) rotate(274.69675133433907)"><path class="outline" fill="#A5ABB6" stroke="none" d="M 25 0.5 L 31.416762796652215 0.5 L 31.416762796652215 -0.5 L 25 -0.5 Z M 78.23316904665222 0.5 L 84.64993184330443 0.5 L 84.64993184330443 3.5 L 91.64993184330443 0 L 84.64993184330443 -3.5 L 84.64993184330443 -0.5 L 78.23316904665222 -0.5 Z"/><text text-anchor="middle" pointer-events="none" font-size="8px" fill="#000000" x="54.824965921652215" y="3" font-family="sans-serif">settlement</text></g><g class="relationship" transform="translate(264.54290425345874 170.67609163860024) rotate(539.5433560204863)"><path class="outline" fill="#A5ABB6" stroke="none" d="M 25 0.5 L 45.35594660419399 0.5 L 45.35594660419399 -0.5 L 25 -0.5 Z M 92.17235285419399 0.5 L 112.52829945838798 0.5 L 112.52829945838798 3.5 L 119.52829945838798 0 L 112.52829945838798 -3.5 L 112.52829945838798 -0.5 L 92.17235285419399 -0.5 Z"/><text text-anchor="middle" pointer-events="none" font-size="8px" fill="#000000" x="68.76414972919399" y="3" transform="rotate(180 68.76414972919399 0)" font-family="sans-serif">settlement</text></g><g class="relationship" transform="translate(139.74232810482334 34.12392995956256) rotate(524.4420715108863)"><path class="outline" fill="#A5ABB6" stroke="none" d="M 25 0.5 L 43.432627076075065 0.5 L 43.432627076075065 -0.5 L 25 -0.5 Z M 90.24903332607506 0.5 L 108.68166040215013 0.5 L 108.68166040215013 3.5 L 115.68166040215013 0 L 108.68166040215013 -3.5 L 108.68166040215013 -0.5 L 90.24903332607506 -0.5 Z"/><text text-anchor="middle" pointer-events="none" font-size="8px" fill="#000000" x="66.84083020107506" y="3" transform="rotate(180 66.84083020107506 0)" font-family="sans-serif">settlement</text></g><g class="relationship" transform="translate(139.74232810482334 34.12392995956256) rotate(324.6933150958241)"><path class="outline" fill="#A5ABB6" stroke="none" d="M 25 0.5 L 39.0332586534945 0.5 L 39.0332586534945 -0.5 L 25 -0.5 Z M 85.8496649034945 0.5 L 99.882923556989 0.5 L 99.882923556989 3.5 L 106.882923556989 0 L 99.882923556989 -3.5 L 99.882923556989 -0.5 L 85.8496649034945 -0.5 Z"/><text text-anchor="middle" pointer-events="none" font-size="8px" fill="#000000" x="62.4414617784945" y="3" font-family="sans-serif">settlement</text></g><g class="relationship" transform="translate(139.74232810482334 34.12392995956256) rotate(290.3942481051459)"><path class="outline" fill="#A5ABB6" stroke="none" d="M 25 0.5 L 39.18500257547514 0.5 L 39.18500257547514 -0.5 L 25 -0.5 Z M 86.00140882547514 0.5 L 100.18641140095028 0.5 L 100.18641140095028 3.5 L 107.18641140095028 0 L 100.18641140095028 -3.5 L 100.18641140095028 -0.5 L 86.00140882547514 -0.5 Z"/><text text-anchor="middle" pointer-events="none" font-size="8px" fill="#000000" x="62.59320570047514" y="3" font-family="sans-serif">settlement</text></g><g class="relationship" transform="translate(139.74232810482334 34.12392995956256) rotate(254.67222733063898)"><path class="outline" fill="#A5ABB6" stroke="none" d="M 25 0.5 L 36.64376673749914 0.5 L 36.64376673749914 -0.5 L 25 -0.5 Z M 83.46017298749913 0.5 L 95.10393972499828 0.5 L 95.10393972499828 3.5 L 102.10393972499828 0 L 95.10393972499828 -3.5 L 95.10393972499828 -0.5 L 83.46017298749913 -0.5 Z"/><text text-anchor="middle" pointer-events="none" font-size="8px" fill="#000000" x="60.05196986249914" y="3" transform="rotate(180 60.05196986249914 0)" font-family="sans-serif">settlement</text></g><g class="relationship" transform="translate(139.74232810482334 34.12392995956256) rotate(458.15094935187557)"><path class="outline" fill="#A5ABB6" stroke="none" d="M 25 0.5 L 42.646455724250885 0.5 L 42.646455724250885 -0.5 L 25 -0.5 Z M 89.46286197425088 0.5 L 107.10931769850177 0.5 L 107.10931769850177 3.5 L 114.10931769850177 0 L 107.10931769850177 -3.5 L 107.10931769850177 -0.5 L 89.46286197425088 -0.5 Z"/><text text-anchor="middle" pointer-events="none" font-size="8px" fill="#000000" x="66.05465884925088" y="3" transform="rotate(180 66.05465884925088 0)" font-family="sans-serif">settlement</text></g><g class="relationship" transform="translate(139.74232810482334 34.12392995956256) rotate(368.5896145749106)"><path class="outline" fill="#A5ABB6" stroke="none" d="M 25 0.5 L 41.02987933491248 0.5 L 41.02987933491248 -0.5 L 25 -0.5 Z M 87.84628558491248 0.5 L 103.87616491982496 0.5 L 103.87616491982496 3.5 L 110.87616491982496 0 L 103.87616491982496 -3.5 L 103.87616491982496 -0.5 L 87.84628558491248 -0.5 Z"/><text text-anchor="middle" pointer-events="none" font-size="8px" fill="#000000" x="64.43808245991248" y="3" font-family="sans-serif">settlement</text></g><g class="relationship" transform="translate(48.13454074141856 249.55038762910047) rotate(465.82603371386335)"><path class="outline" fill="#A5ABB6" stroke="none" d="M 25 0.5 L 34.142966350187095 0.5 L 34.142966350187095 -0.5 L 25 -0.5 Z M 80.9593726001871 0.5 L 90.10233895037419 0.5 L 90.10233895037419 3.5 L 97.10233895037419 0 L 90.10233895037419 -3.5 L 90.10233895037419 -0.5 L 80.9593726001871 -0.5 Z"/><text text-anchor="middle" pointer-events="none" font-size="8px" fill="#000000" x="57.551169475187095" y="3" transform="rotate(180 57.551169475187095 0)" font-family="sans-serif">settlement</text></g><g class="relationship" transform="translate(48.13454074141856 249.55038762910047) rotate(420.4965878028662)"><path class="outline" fill="#A5ABB6" stroke="none" d="M 25 0.5 L 36.515505535132746 0.5 L 36.515505535132746 -0.5 L 25 -0.5 Z M 83.33191178513275 0.5 L 94.84741732026549 0.5 L 94.84741732026549 3.5 L 101.84741732026549 0 L 94.84741732026549 -3.5 L 94.84741732026549 -0.5 L 83.33191178513275 -0.5 Z"/><text text-anchor="middle" pointer-events="none" font-size="8px" fill="#000000" x="59.923708660132746" y="3" font-family="sans-serif">settlement</text></g><g class="relationship" transform="translate(48.13454074141856 249.55038762910047) rotate(312.76541266646535)"><path class="outline" fill="#A5ABB6" stroke="none" d="M 25 0.5 L 26.02614075041707 0.5 L 26.02614075041707 -0.5 L 25 -0.5 Z M 72.84254700041707 0.5 L 73.86868775083414 0.5 L 73.86868775083414 3.5 L 80.86868775083414 0 L 73.86868775083414 -3.5 L 73.86868775083414 -0.5 L 72.84254700041707 -0.5 Z"/><text text-anchor="middle" pointer-events="none" font-size="8px" fill="#000000" x="49.43434387541707" y="3" font-family="sans-serif">settlement</text></g><g class="relationship" transform="translate(184.82942259051717 102.81146703702258) rotate(493.1997465185823)"><path class="outline" fill="#A5ABB6" stroke="none" d="M 25 0.5 L 27.148803349135108 0.5 L 27.148803349135108 -0.5 L 25 -0.5 Z M 60.52770959913511 0.5 L 62.676512948270215 0.5 L 62.676512948270215 3.5 L 69.67651294827022 0 L 62.676512948270215 -3.5 L 62.676512948270215 -0.5 L 60.52770959913511 -0.5 Z"/><text text-anchor="middle" pointer-events="none" font-size="8px" fill="#000000" x="43.83825647413511" y="3" transform="rotate(180 43.83825647413511 0)" font-family="sans-serif">settle…</text></g><g class="relationship" transform="translate(184.82942259051717 102.81146703702258) rotate(331.53637189715636)"><path class="outline" fill="#A5ABB6" stroke="none" d="M 25 0.5 L 26.832035159201112 0.5 L 26.832035159201112 -0.5 L 25 -0.5 Z M 67.70703515920111 0.5 L 69.53907031840222 0.5 L 69.53907031840222 3.5 L 76.53907031840222 0 L 69.53907031840222 -3.5 L 69.53907031840222 -0.5 L 67.70703515920111 -0.5 Z"/><text text-anchor="middle" pointer-events="none" font-size="8px" fill="#000000" x="47.26953515920111" y="3" font-family="sans-serif">settlem…</text></g><g class="relationship" transform="translate(-66.77973159435825 -21.76789903412594) rotate(412.8271065119217)"><path class="outline" fill="#A5ABB6" stroke="none" d="M 25 0.5 L 31.84088476416447 0.5 L 31.84088476416447 -0.5 L 25 -0.5 Z M 78.65729101416447 0.5 L 85.49817577832894 0.5 L 85.49817577832894 3.5 L 92.49817577832894 0 L 85.49817577832894 -3.5 L 85.49817577832894 -0.5 L 78.65729101416447 -0.5 Z"/><text text-anchor="middle" pointer-events="none" font-size="8px" fill="#000000" x="55.24908788916447" y="3" font-family="sans-serif">settlement</text></g><g class="relationship" transform="translate(-66.77973159435825 -21.76789903412594) rotate(500.83197477033923)"><path class="outline" fill="#A5ABB6" stroke="none" d="M 25 0.5 L 31.036025551270612 0.5 L 31.036025551270612 -0.5 L 25 -0.5 Z M 77.85243180127061 0.5 L 83.88845735254122 0.5 L 83.88845735254122 3.5 L 90.88845735254122 0 L 83.88845735254122 -3.5 L 83.88845735254122 -0.5 L 77.85243180127061 -0.5 Z"/><text text-anchor="middle" pointer-events="none" font-size="8px" fill="#000000" x="54.44422867627061" y="3" transform="rotate(180 54.44422867627061 0)" font-family="sans-serif">settlement</text></g><g class="relationship" transform="translate(-168.476078528467 -71.7770006418211) rotate(444.50682854489435)"><path class="outline" fill="#A5ABB6" stroke="none" d="M 25 0.5 L 34.97793834874401 0.5 L 34.97793834874401 -0.5 L 25 -0.5 Z M 81.794344598744 0.5 L 91.77228294748802 0.5 L 91.77228294748802 3.5 L 98.77228294748802 0 L 91.77228294748802 -3.5 L 91.77228294748802 -0.5 L 81.794344598744 -0.5 Z"/><text text-anchor="middle" pointer-events="none" font-size="8px" fill="#000000" x="58.38614147374401" y="3" font-family="sans-serif">settlement</text></g><g class="relationship" transform="translate(-258.2785156936403 0.13672994483881615) rotate(386.7742301137913)"><path class="outline" fill="#A5ABB6" stroke="none" d="M 25 0.5 L 30.020621097183927 0.5 L 30.020621097183927 -0.5 L 25 -0.5 Z M 76.83702734718392 0.5 L 81.85764844436785 0.5 L 81.85764844436785 3.5 L 88.85764844436785 0 L 81.85764844436785 -3.5 L 81.85764844436785 -0.5 L 76.83702734718392 -0.5 Z"/><text text-anchor="middle" pointer-events="none" font-size="8px" fill="#000000" x="53.42882422218393" y="3" font-family="sans-serif">settlement</text></g><g class="relationship" transform="translate(-107.04911494090337 167.34378318940588) rotate(520.578993255056)"><path class="outline" fill="#A5ABB6" stroke="none" d="M 25 0.5 L 31.0174889161065 0.5 L 31.0174889161065 -0.5 L 25 -0.5 Z M 77.8338951661065 0.5 L 83.851384082213 0.5 L 83.851384082213 3.5 L 90.851384082213 0 L 83.851384082213 -3.5 L 83.851384082213 -0.5 L 77.8338951661065 -0.5 Z"/><text text-anchor="middle" pointer-events="none" font-size="8px" fill="#000000" x="54.4256920411065" y="3" transform="rotate(180 54.4256920411065 0)" font-family="sans-serif">settlement</text></g><g class="relationship" transform="translate(-107.04911494090337 167.34378318940588) rotate(246.8432129854)"><path class="outline" fill="#A5ABB6" stroke="none" d="M 25 0.5 L 36.12902350433562 0.5 L 36.12902350433562 -0.5 L 25 -0.5 Z M 82.94542975433562 0.5 L 94.07445325867124 0.5 L 94.07445325867124 3.5 L 101.07445325867124 0 L 94.07445325867124 -3.5 L 94.07445325867124 -0.5 L 82.94542975433562 -0.5 Z"/><text text-anchor="middle" pointer-events="none" font-size="8px" fill="#000000" x="59.53722662933562" y="3" transform="rotate(180 59.53722662933562 0)" font-family="sans-serif">settlement</text></g><g class="relationship" transform="translate(-107.04911494090337 167.34378318940588) rotate(465.3761657426721)"><path class="outline" fill="#A5ABB6" stroke="none" d="M 25 0.5 L 32.380031773714535 0.5 L 32.380031773714535 -0.5 L 25 -0.5 Z M 79.19643802371453 0.5 L 86.57646979742907 0.5 L 86.57646979742907 3.5 L 93.57646979742907 0 L 86.57646979742907 -3.5 L 86.57646979742907 -0.5 L 79.19643802371453 -0.5 Z"/><text text-anchor="middle" pointer-events="none" font-size="8px" fill="#000000" x="55.788234898714535" y="3" transform="rotate(180 55.788234898714535 0)" font-family="sans-serif">settlement</text></g><g class="relationship" transform="translate(-107.04911494090337 167.34378318940588) rotate(319.36375597785445)"><path class="outline" fill="#A5ABB6" stroke="none" d="M 25 0.5 L 46.402068590344996 0.5 L 46.402068590344996 -0.5 L 25 -0.5 Z M 93.218474840345 0.5 L 114.62054343068999 0.5 L 114.62054343068999 3.5 L 121.62054343068999 0 L 114.62054343068999 -3.5 L 114.62054343068999 -0.5 L 93.218474840345 -0.5 Z"/><text text-anchor="middle" pointer-events="none" font-size="8px" fill="#000000" x="69.810271715345" y="3" font-family="sans-serif">settlement</text></g></g><g class="layer nodes"><g class="node" transform="translate(202.66702936090257,266.8713839025422)"><circle class="outline" cx="0" cy="0" r="25" fill="#F79767" stroke="#f36924" stroke-width="2px"/><text text-anchor="middle" pointer-events="none" font-family="sans-serif" dy="1.5625" font-size="25" fill="#FFFFFF"/><text text-anchor="middle" pointer-events="none" y="5" font-size="10px" fill="#FFFFFF" font-family="sans-serif"> Gainesvi…</text></g><g class="node" transform="translate(120.01919498658515,171.82796145662132)"><circle class="outline" cx="0" cy="0" r="25" fill="#4C8EDA" stroke="#2870c2" stroke-width="2px"/><text text-anchor="middle" pointer-events="none" font-family="sans-serif" dy="1.5625" font-size="25" fill="#FFFFFF"/><text text-anchor="middle" pointer-events="none" y="5" font-size="10px" fill="#FFFFFF" font-family="sans-serif"> USA</text></g><g class="node" transform="translate(264.54290425345874,170.67609163860024)"><circle class="outline" cx="0" cy="0" r="25" fill="#F79767" stroke="#f36924" stroke-width="2px"/><text text-anchor="middle" pointer-events="none" font-family="sans-serif" dy="1.5625" font-size="25" fill="#FFFFFF"/><text text-anchor="middle" pointer-events="none" font-family="sans-serif" dy="1.5625" font-size="25" fill="#FFFFFF"/><text text-anchor="middle" pointer-events="none" y="0" font-size="10px" fill="#FFFFFF" font-family="sans-serif"> Hong</text><text text-anchor="middle" pointer-events="none" y="10" font-size="10px" fill="#FFFFFF" font-family="sans-serif"> Kong</text></g><g class="node" transform="translate(384.1220556141804,197.00295225594198)"><circle class="outline" cx="0" cy="0" r="25" fill="#4C8EDA" stroke="#2870c2" stroke-width="2px"/><text text-anchor="middle" pointer-events="none" font-family="sans-serif" dy="1.5625" font-size="25" fill="#FFFFFF"/><text text-anchor="middle" pointer-events="none" font-family="sans-serif" dy="1.5625" font-size="25" fill="#FFFFFF"/><text text-anchor="middle" pointer-events="none" y="0" font-size="10px" fill="#FFFFFF" font-family="sans-serif"> South</text><text text-anchor="middle" pointer-events="none" y="10" font-size="10px" fill="#FFFFFF" font-family="sans-serif"> Korea</text></g><g class="node" transform="translate(274.0944338847159,54.417866636019085)"><circle class="outline" cx="0" cy="0" r="25" fill="#4C8EDA" stroke="#2870c2" stroke-width="2px"/><text text-anchor="middle" pointer-events="none" font-family="sans-serif" dy="1.5625" font-size="25" fill="#FFFFFF"/><text text-anchor="middle" pointer-events="none" y="5" font-size="10px" fill="#FFFFFF" font-family="sans-serif"> China</text></g><g class="node" transform="translate(139.74232810482334,34.12392995956256)"><circle class="outline" cx="0" cy="0" r="25" fill="#F79767" stroke="#f36924" stroke-width="2px"/><text text-anchor="middle" pointer-events="none" font-family="sans-serif" dy="1.5625" font-size="25" fill="#FFFFFF"/><text text-anchor="middle" pointer-events="none" y="5" font-size="10px" fill="#FFFFFF" font-family="sans-serif"> Beijing</text></g><g class="node" transform="translate(4.215275915689119,71.85651135057772)"><circle class="outline" cx="0" cy="0" r="25" fill="#4C8EDA" stroke="#2870c2" stroke-width="2px"/><text text-anchor="middle" pointer-events="none" font-family="sans-serif" dy="1.5625" font-size="25" fill="#FFFFFF"/><text text-anchor="middle" pointer-events="none" y="5" font-size="10px" fill="#FFFFFF" font-family="sans-serif"> UK</text></g><g class="node" transform="translate(247.3680471347894,-42.098180541402996)"><circle class="outline" cx="0" cy="0" r="25" fill="#4C8EDA" stroke="#2870c2" stroke-width="2px"/><text text-anchor="middle" pointer-events="none" font-family="sans-serif" dy="1.5625" font-size="25" fill="#FFFFFF"/><text text-anchor="middle" pointer-events="none" y="5" font-size="10px" fill="#FFFFFF" font-family="sans-serif"> Spain</text></g><g class="node" transform="translate(185.8063780706555,-89.77663767354636)"><circle class="outline" cx="0" cy="0" r="25" fill="#4C8EDA" stroke="#2870c2" stroke-width="2px"/><text text-anchor="middle" pointer-events="none" font-family="sans-serif" dy="1.5625" font-size="25" fill="#FFFFFF"/><text text-anchor="middle" pointer-events="none" y="5" font-size="10px" fill="#FFFFFF" font-family="sans-serif"> BRAZIL</text></g><g class="node" transform="translate(106.14360104448231,-88.45884629200023)"><circle class="outline" cx="0" cy="0" r="25" fill="#4C8EDA" stroke="#2870c2" stroke-width="2px"/><text text-anchor="middle" pointer-events="none" font-family="sans-serif" dy="1.5625" font-size="25" fill="#FFFFFF"/><text text-anchor="middle" pointer-events="none" y="5" font-size="10px" fill="#FFFFFF" font-family="sans-serif"> State Key</text></g><g class="node" transform="translate(48.13454074141856,249.55038762910047)"><circle class="outline" cx="0" cy="0" r="25" fill="#F79767" stroke="#f36924" stroke-width="2px"/><text text-anchor="middle" pointer-events="none" font-family="sans-serif" dy="1.5625" font-size="25" fill="#FFFFFF"/><text text-anchor="middle" pointer-events="none" y="5" font-size="10px" fill="#FFFFFF" font-family="sans-serif"> Athens</text></g><g class="node" transform="translate(14.835105181184366,367.0243369477553)"><circle class="outline" cx="0" cy="0" r="25" fill="#4C8EDA" stroke="#2870c2" stroke-width="2px"/><text text-anchor="middle" pointer-events="none" font-family="sans-serif" dy="1.5625" font-size="25" fill="#FFFFFF"/><text text-anchor="middle" pointer-events="none" y="5" font-size="10px" fill="#FFFFFF" font-family="sans-serif"> Australia</text></g><g class="node" transform="translate(110.60377236854342,359.9490397075485)"><circle class="outline" cx="0" cy="0" r="25" fill="#4C8EDA" stroke="#2870c2" stroke-width="2px"/><text text-anchor="middle" pointer-events="none" font-family="sans-serif" dy="1.5625" font-size="25" fill="#FFFFFF"/><text text-anchor="middle" pointer-events="none" y="5" font-size="10px" fill="#FFFFFF" font-family="sans-serif"> Greece</text></g><g class="node" transform="translate(184.82942259051717,102.81146703702258)"><circle class="outline" cx="0" cy="0" r="25" fill="#F79767" stroke="#f36924" stroke-width="2px"/><text text-anchor="middle" pointer-events="none" font-family="sans-serif" dy="1.5625" font-size="25" fill="#FFFFFF"/><text text-anchor="middle" pointer-events="none" y="5" font-size="10px" fill="#FFFFFF" font-family="sans-serif"> Blacksb…</text></g><g class="node" transform="translate(-66.77973159435825,-21.76789903412594)"><circle class="outline" cx="0" cy="0" r="25" fill="#F79767" stroke="#f36924" stroke-width="2px"/><text text-anchor="middle" pointer-events="none" font-family="sans-serif" dy="1.5625" font-size="25" fill="#FFFFFF"/><text text-anchor="middle" pointer-events="none" y="5" font-size="10px" fill="#FFFFFF" font-family="sans-serif"> Chandig…</text></g><g class="node" transform="translate(-156.62771435448514,51.42687223737754)"><circle class="outline" cx="0" cy="0" r="25" fill="#4C8EDA" stroke="#2870c2" stroke-width="2px"/><text text-anchor="middle" pointer-events="none" font-family="sans-serif" dy="1.5625" font-size="25" fill="#FFFFFF"/><text text-anchor="middle" pointer-events="none" y="5" font-size="10px" fill="#FFFFFF" font-family="sans-serif"> India</text></g><g class="node" transform="translate(-168.476078528467,-71.7770006418211)"><circle class="outline" cx="0" cy="0" r="25" fill="#F79767" stroke="#f36924" stroke-width="2px"/><text text-anchor="middle" pointer-events="none" font-family="sans-serif" dy="1.5625" font-size="25" fill="#FFFFFF"/><text text-anchor="middle" pointer-events="none" font-family="sans-serif" dy="1.5625" font-size="25" fill="#FFFFFF"/><text text-anchor="middle" pointer-events="none" y="0" font-size="10px" fill="#FFFFFF" font-family="sans-serif"> New</text><text text-anchor="middle" pointer-events="none" y="10" font-size="10px" fill="#FFFFFF" font-family="sans-serif"> Delhi</text></g><g class="node" transform="translate(-258.2785156936403,0.13672994483881615)"><circle class="outline" cx="0" cy="0" r="25" fill="#F79767" stroke="#f36924" stroke-width="2px"/><text text-anchor="middle" pointer-events="none" font-family="sans-serif" dy="1.5625" font-size="25" fill="#FFFFFF"/><text text-anchor="middle" pointer-events="none" y="5" font-size="10px" fill="#FFFFFF" font-family="sans-serif"> Lucknow</text></g><g class="node" transform="translate(-107.04911494090337,167.34378318940588)"><circle class="outline" cx="0" cy="0" r="25" fill="#F79767" stroke="#f36924" stroke-width="2px"/><text text-anchor="middle" pointer-events="none" font-family="sans-serif" dy="1.5625" font-size="25" fill="#FFFFFF"/><text text-anchor="middle" pointer-events="none" y="5" font-size="10px" fill="#FFFFFF" font-family="sans-serif"> Paris</text></g><g class="node" transform="translate(-216.30864934470884,205.86517121772184)"><circle class="outline" cx="0" cy="0" r="25" fill="#4C8EDA" stroke="#2870c2" stroke-width="2px"/><text text-anchor="middle" pointer-events="none" font-family="sans-serif" dy="1.5625" font-size="25" fill="#FFFFFF"/><text text-anchor="middle" pointer-events="none" y="5" font-size="10px" fill="#FFFFFF" font-family="sans-serif"> France</text></g><g class="node" transform="translate(-138.49026401634688,281.67590174948657)"><circle class="outline" cx="0" cy="0" r="25" fill="#4C8EDA" stroke="#2870c2" stroke-width="2px"/><text text-anchor="middle" pointer-events="none" font-family="sans-serif" dy="1.5625" font-size="25" fill="#FFFFFF"/><text text-anchor="middle" pointer-events="none" y="5" font-size="10px" fill="#FFFFFF" font-family="sans-serif"> Cuba</text></g></g></svg>