<svg xmlns="http://www.w3.org/2000/svg" width="861.8927001953125" height="717.0736694335938" viewBox="-210.8011474609375 -196.00103759765625 861.8927001953125 717.0736694335938"><title>Neo4j Graph Visualization</title><desc>Created using Neo4j (http://www.neo4j.com/)</desc><g class="layer relationships"><g class="relationship" transform="translate(387.2495394588917 492.07253025397046) rotate(283.2903494941565)"><path class="outline" fill="#A5ABB6" stroke="none" d="M 25 0.5 L 61.442337485094555 0.5 L 61.442337485094555 -0.5 L 25 -0.5 Z M 92.84077498509455 0.5 L 129.2831124701891 0.5 L 129.2831124701891 3.5 L 136.2831124701891 0 L 129.2831124701891 -3.5 L 129.2831124701891 -0.5 L 92.84077498509455 -0.5 Z"/><text text-anchor="middle" pointer-events="none" font-size="8px" fill="#000000" x="77.14155623509455" y="3" font-family="sans-serif">author</text></g><g class="relationship" transform="translate(424.326239761563 335.10896549215204) rotate(236.9796823489682)"><path class="outline" fill="#A5ABB6" stroke="none" d="M 25 0.5 L 82.46286463702376 0.5 L 82.46286463702376 -0.5 L 25 -0.5 Z M 127.36911463702376 0.5 L 184.8319792740475 0.5 L 184.8319792740475 3.5 L 191.8319792740475 0 L 184.8319792740475 -3.5 L 184.8319792740475 -0.5 L 127.36911463702376 -0.5 Z"/><text text-anchor="middle" pointer-events="none" font-size="8px" fill="#000000" x="104.91598963702376" y="3" transform="rotate(180 104.91598963702376 0)" font-family="sans-serif">institution</text></g><g class="relationship" transform="translate(306.1666012117931 153.30025543213125) rotate(475.52520862153153)"><path class="outline" fill="#A5ABB6" stroke="none" d="M 25 0.5 L 70.96109566119523 0.5 L 70.96109566119523 -0.5 L 25 -0.5 Z M 117.77750191119523 0.5 L 163.73859757239046 0.5 L 163.73859757239046 3.5 L 170.73859757239046 0 L 163.73859757239046 -3.5 L 163.73859757239046 -0.5 L 117.77750191119523 -0.5 Z"/><text text-anchor="middle" pointer-events="none" font-size="8px" fill="#000000" x="94.36929878619523" y="3" transform="rotate(180 94.36929878619523 0)" font-family="sans-serif">settlement</text></g><g class="relationship" transform="translate(502.79773152684476 459.7932737644593) rotate(237.81527256628544)"><path class="outline" fill="#A5ABB6" stroke="none" d="M 25 0.5 L 54.46208681338997 0.5 L 54.46208681338997 -0.5 L 25 -0.5 Z M 85.86052431338997 0.5 L 115.32261112677995 0.5 L 115.32261112677995 3.5 L 122.32261112677995 0 L 115.32261112677995 -3.5 L 115.32261112677995 -0.5 L 85.86052431338997 -0.5 Z"/><text text-anchor="middle" pointer-events="none" font-size="8px" fill="#000000" x="70.16130556338997" y="3" transform="rotate(180 70.16130556338997 0)" font-family="sans-serif">author</text></g><g class="relationship" transform="translate(346.0721790889716 448.44964010636386) rotate(304.6224514865732)"><path class="outline" fill="#A5ABB6" stroke="none" d="M 25 0.5 L 49.66624163064773 0.5 L 49.66624163064773 -0.5 L 25 -0.5 Z M 81.06467913064773 0.5 L 105.73092076129547 0.5 L 105.73092076129547 3.5 L 112.73092076129547 0 L 105.73092076129547 -3.5 L 105.73092076129547 -0.5 L 81.06467913064773 -0.5 Z"/><text text-anchor="middle" pointer-events="none" font-size="8px" fill="#000000" x="65.36546038064773" y="3" font-family="sans-serif">author</text></g><g class="relationship" transform="translate(444.9661541990271 475.7242879378863) rotate(261.6495932242403)"><path class="outline" fill="#A5ABB6" stroke="none" d="M 25 0.5 L 51.86180251782244 0.5 L 51.86180251782244 -0.5 L 25 -0.5 Z M 83.26024001782244 0.5 L 110.12204253564488 0.5 L 110.12204253564488 3.5 L 117.12204253564488 0 L 110.12204253564488 -3.5 L 110.12204253564488 -0.5 L 83.26024001782244 -0.5 Z"/><text text-anchor="middle" pointer-events="none" font-size="8px" fill="#000000" x="67.56102126782244" y="3" transform="rotate(180 67.56102126782244 0)" font-family="sans-serif">author</text></g><g class="relationship" transform="translate(539.3747663071539 412.2194554977648) rotate(213.83170042985)"><path class="outline" fill="#A5ABB6" stroke="none" d="M 25 0.5 L 50.05067498496763 0.5 L 50.05067498496763 -0.5 L 25 -0.5 Z M 81.44911248496763 0.5 L 106.49978746993526 0.5 L 106.49978746993526 3.5 L 113.49978746993526 0 L 106.49978746993526 -3.5 L 106.49978746993526 -0.5 L 81.44911248496763 -0.5 Z"/><text text-anchor="middle" pointer-events="none" font-size="8px" fill="#000000" x="65.74989373496763" y="3" transform="rotate(180 65.74989373496763 0)" font-family="sans-serif">author</text></g><g class="relationship" transform="translate(553.6276354161746 348.4997161498643) rotate(185.9126052864192)"><path class="outline" fill="#A5ABB6" stroke="none" d="M 25 0.5 L 45.79724869517628 0.5 L 45.79724869517628 -0.5 L 25 -0.5 Z M 77.19568619517628 0.5 L 97.99293489035256 0.5 L 97.99293489035256 3.5 L 104.99293489035256 0 L 97.99293489035256 -3.5 L 97.99293489035256 -0.5 L 77.19568619517628 -0.5 Z"/><text text-anchor="middle" pointer-events="none" font-size="8px" fill="#000000" x="61.49646744517628" y="3" transform="rotate(180 61.49646744517628 0)" font-family="sans-serif">author</text></g><g class="relationship" transform="translate(600.5917210145909 223.47457021977522) rotate(208.22872864560452)"><path class="outline" fill="#A5ABB6" stroke="none" d="M 25 0.5 L 50.005962591156774 0.5 L 50.005962591156774 -0.5 L 25 -0.5 Z M 81.40440009115677 0.5 L 106.41036268231355 0.5 L 106.41036268231355 3.5 L 113.41036268231355 0 L 106.41036268231355 -3.5 L 106.41036268231355 -0.5 L 81.40440009115677 -0.5 Z"/><text text-anchor="middle" pointer-events="none" font-size="8px" fill="#000000" x="65.70518134115677" y="3" transform="rotate(180 65.70518134115677 0)" font-family="sans-serif">author</text></g><g class="relationship" transform="translate(478.6430010616113 158.00749300015795) rotate(181.56333221307904)"><path class="outline" fill="#A5ABB6" stroke="none" d="M 25 0.5 L 60.31718650789392 0.5 L 60.31718650789392 -0.5 L 25 -0.5 Z M 105.22343650789392 0.5 L 140.54062301578784 0.5 L 140.54062301578784 3.5 L 147.54062301578784 0 L 140.54062301578784 -3.5 L 140.54062301578784 -0.5 L 105.22343650789392 -0.5 Z"/><text text-anchor="middle" pointer-events="none" font-size="8px" fill="#000000" x="82.77031150789392" y="3" transform="rotate(180 82.77031150789392 0)" font-family="sans-serif">institution</text></g><g class="relationship" transform="translate(622.0915592863729 151.70544881332097) rotate(537.4844745383707)"><path class="outline" fill="#A5ABB6" stroke="none" d="M 25 0.5 L 52.594243030470764 0.5 L 52.594243030470764 -0.5 L 25 -0.5 Z M 83.99268053047076 0.5 L 111.58692356094153 0.5 L 111.58692356094153 3.5 L 118.58692356094153 0 L 111.58692356094153 -3.5 L 111.58692356094153 -0.5 L 83.99268053047076 -0.5 Z"/><text text-anchor="middle" pointer-events="none" font-size="8px" fill="#000000" x="68.29346178047076" y="3" transform="rotate(180 68.29346178047076 0)" font-family="sans-serif">author</text></g><g class="relationship" transform="translate(592.338113921441 -22.177191218188486) rotate(530.546416905636)"><path class="outline" fill="#A5ABB6" stroke="none" d="M 25 0.5 L 53.94478883275474 0.5 L 53.94478883275474 -0.5 L 25 -0.5 Z M 85.34322633275474 0.5 L 114.28801516550948 0.5 L 114.28801516550948 3.5 L 121.28801516550948 0 L 114.28801516550948 -3.5 L 114.28801516550948 -0.5 L 85.34322633275474 -0.5 Z"/><text text-anchor="middle" pointer-events="none" font-size="8px" fill="#000000" x="69.64400758275474" y="3" transform="rotate(180 69.64400758275474 0)" font-family="sans-serif">author</text></g><g class="relationship" transform="translate(448.03683811431046 1.8504008688009663) rotate(493.1294270154319)"><path class="outline" fill="#A5ABB6" stroke="none" d="M 25 0.5 L 77.80648005662873 0.5 L 77.80648005662873 -0.5 L 25 -0.5 Z M 122.71273005662873 0.5 L 175.51921011325746 0.5 L 175.51921011325746 3.5 L 182.51921011325746 0 L 175.51921011325746 -3.5 L 175.51921011325746 -0.5 L 122.71273005662873 -0.5 Z"/><text text-anchor="middle" pointer-events="none" font-size="8px" fill="#000000" x="100.25960505662873" y="3" transform="rotate(180 100.25960505662873 0)" font-family="sans-serif">institution</text></g><g class="relationship" transform="translate(571.9561401258712 36.05859783772047) rotate(195.4322845883172)"><path class="outline" fill="#A5ABB6" stroke="none" d="M 25 0.5 L 45.07790422329589 0.5 L 45.07790422329589 -0.5 L 25 -0.5 Z M 76.47634172329589 0.5 L 96.55424594659178 0.5 L 96.55424594659178 3.5 L 103.55424594659178 0 L 96.55424594659178 -3.5 L 96.55424594659178 -0.5 L 76.47634172329589 -0.5 Z"/><text text-anchor="middle" pointer-events="none" font-size="8px" fill="#000000" x="60.77712297329589" y="3" transform="rotate(180 60.77712297329589 0)" font-family="sans-serif">author</text></g><g class="relationship" transform="translate(545.5830649165661 -132.67544102304004) rotate(485.94629681102117)"><path class="outline" fill="#A5ABB6" stroke="none" d="M 25 0.5 L 63.885780648305484 0.5 L 63.885780648305484 -0.5 L 25 -0.5 Z M 95.28421814830548 0.5 L 134.16999879661097 0.5 L 134.16999879661097 3.5 L 141.16999879661097 0 L 134.16999879661097 -3.5 L 134.16999879661097 -0.5 L 95.28421814830548 -0.5 Z"/><text text-anchor="middle" pointer-events="none" font-size="8px" fill="#000000" x="79.58499939830548" y="3" transform="rotate(180 79.58499939830548 0)" font-family="sans-serif">author</text></g><g class="relationship" transform="translate(568.5554404193622 -77.24924404742106) rotate(506.72201769239666)"><path class="outline" fill="#A5ABB6" stroke="none" d="M 25 0.5 L 52.87970904348835 0.5 L 52.87970904348835 -0.5 L 25 -0.5 Z M 84.27814654348835 0.5 L 112.1578555869767 0.5 L 112.1578555869767 3.5 L 119.1578555869767 0 L 112.1578555869767 -3.5 L 112.1578555869767 -0.5 L 84.27814654348835 -0.5 Z"/><text text-anchor="middle" pointer-events="none" font-size="8px" fill="#000000" x="68.57892779348835" y="3" transform="rotate(180 68.57892779348835 0)" font-family="sans-serif">author</text></g><g class="relationship" transform="translate(407.91752439775524 -134.23363587747858) rotate(433.5738092123448)"><path class="outline" fill="#A5ABB6" stroke="none" d="M 25 0.5 L 51.73812048373877 0.5 L 51.73812048373877 -0.5 L 25 -0.5 Z M 83.13655798373877 0.5 L 109.87467846747754 0.5 L 109.87467846747754 3.5 L 116.87467846747754 0 L 109.87467846747754 -3.5 L 109.87467846747754 -0.5 L 83.13655798373877 -0.5 Z"/><text text-anchor="middle" pointer-events="none" font-size="8px" fill="#000000" x="67.43733923373877" y="3" font-family="sans-serif">author</text></g><g class="relationship" transform="translate(488.8904697646456 -113.07872711101923) rotate(469.5686741009846)"><path class="outline" fill="#A5ABB6" stroke="none" d="M 25 0.5 L 41.78791857670021 0.5 L 41.78791857670021 -0.5 L 25 -0.5 Z M 73.1863560767002 0.5 L 89.97427465340041 0.5 L 89.97427465340041 3.5 L 96.97427465340041 0 L 89.97427465340041 -3.5 L 89.97427465340041 -0.5 L 73.1863560767002 -0.5 Z"/><text text-anchor="middle" pointer-events="none" font-size="8px" fill="#000000" x="57.48713732670021" y="3" transform="rotate(180 57.48713732670021 0)" font-family="sans-serif">author</text></g><g class="relationship" transform="translate(462.5955096419527 -167.00104169420538) rotate(454.927956278053)"><path class="outline" fill="#A5ABB6" stroke="none" d="M 25 0.5 L 65.53974007688495 0.5 L 65.53974007688495 -0.5 L 25 -0.5 Z M 96.93817757688495 0.5 L 137.4779176537699 0.5 L 137.4779176537699 3.5 L 144.4779176537699 0 L 137.4779176537699 -3.5 L 137.4779176537699 -0.5 L 96.93817757688495 -0.5 Z"/><text text-anchor="middle" pointer-events="none" font-size="8px" fill="#000000" x="81.23895882688495" y="3" transform="rotate(180 81.23895882688495 0)" font-family="sans-serif">author</text></g><g class="relationship" transform="translate(-28.639614245909886 230.73846016287433) rotate(296.475090028762)"><path class="outline" fill="#A5ABB6" stroke="none" d="M 25 0.5 L 61.099324244318666 0.5 L 61.099324244318666 -0.5 L 25 -0.5 Z M 92.49776174431867 0.5 L 128.59708598863733 0.5 L 128.59708598863733 3.5 L 135.59708598863733 0 L 128.59708598863733 -3.5 L 128.59708598863733 -0.5 L 92.49776174431867 -0.5 Z"/><text text-anchor="middle" pointer-events="none" font-size="8px" fill="#000000" x="76.79854299431867" y="3" font-family="sans-serif">author</text></g><g class="relationship" transform="translate(42.95596201656372 86.9834689880073) rotate(374.1415269699956)"><path class="outline" fill="#A5ABB6" stroke="none" d="M 25 0.5 L 109.76510954296472 0.5 L 109.76510954296472 -0.5 L 25 -0.5 Z M 154.67135954296472 0.5 L 239.43646908592945 0.5 L 239.43646908592945 3.5 L 246.43646908592945 0 L 239.43646908592945 -3.5 L 239.43646908592945 -0.5 L 154.67135954296472 -0.5 Z"/><text text-anchor="middle" pointer-events="none" font-size="8px" fill="#000000" x="132.21823454296472" y="3" font-family="sans-serif">institution</text></g><g class="relationship" transform="translate(90.18360295933194 -42.228840184670844) rotate(470.0775700291889)"><path class="outline" fill="#A5ABB6" stroke="none" d="M 25 0.5 L 49.587173274067524 0.5 L 49.587173274067524 -0.5 L 25 -0.5 Z M 80.98561077406752 0.5 L 105.57278404813505 0.5 L 105.57278404813505 3.5 L 112.57278404813505 0 L 105.57278404813505 -3.5 L 105.57278404813505 -0.5 L 80.98561077406752 -0.5 Z"/><text text-anchor="middle" pointer-events="none" font-size="8px" fill="#000000" x="65.28639202406752" y="3" transform="rotate(180 65.28639202406752 0)" font-family="sans-serif">author</text></g><g class="relationship" transform="translate(69.45289294704453 -124.0138552924584) rotate(457.1577040847152)"><path class="outline" fill="#A5ABB6" stroke="none" d="M 25 0.5 L 87.12805691604285 0.5 L 87.12805691604285 -0.5 L 25 -0.5 Z M 118.52649441604285 0.5 L 180.6545513320857 0.5 L 180.6545513320857 3.5 L 187.6545513320857 0 L 180.6545513320857 -3.5 L 180.6545513320857 -0.5 L 118.52649441604285 -0.5 Z"/><text text-anchor="middle" pointer-events="none" font-size="8px" fill="#000000" x="102.82727566604285" y="3" transform="rotate(180 102.82727566604285 0)" font-family="sans-serif">author</text></g><g class="relationship" transform="translate(92.18124487753548 201.93650104979335) rotate(246.81838235811557)"><path class="outline" fill="#A5ABB6" stroke="none" d="M 25 0.5 L 43.32543249441058 0.5 L 43.32543249441058 -0.5 L 25 -0.5 Z M 74.72386999441058 0.5 L 93.04930248882116 0.5 L 93.04930248882116 3.5 L 100.04930248882116 0 L 93.04930248882116 -3.5 L 93.04930248882116 -0.5 L 74.72386999441058 -0.5 Z"/><text text-anchor="middle" pointer-events="none" font-size="8px" fill="#000000" x="59.02465124441058" y="3" transform="rotate(180 59.02465124441058 0)" font-family="sans-serif">author</text></g><g class="relationship" transform="translate(-81.92621423129769 -96.83968728843469) rotate(415.80936369109975)"><path class="outline" fill="#A5ABB6" stroke="none" d="M 25 0.5 L 91.9161612923631 0.5 L 91.9161612923631 -0.5 L 25 -0.5 Z M 123.3145987923631 0.5 L 190.2307600847262 0.5 L 190.2307600847262 3.5 L 197.2307600847262 0 L 190.2307600847262 -3.5 L 190.2307600847262 -0.5 L 123.3145987923631 -0.5 Z"/><text text-anchor="middle" pointer-events="none" font-size="8px" fill="#000000" x="107.6153800423631" y="3" font-family="sans-serif">author</text></g><g class="relationship" transform="translate(2.1464289420056755 -22.916499325168065) rotate(429.628354861944)"><path class="outline" fill="#A5ABB6" stroke="none" d="M 25 0.5 L 39.41695014775464 0.5 L 39.41695014775464 -0.5 L 25 -0.5 Z M 70.81538764775465 0.5 L 85.23233779550928 0.5 L 85.23233779550928 3.5 L 92.23233779550928 0 L 85.23233779550928 -3.5 L 85.23233779550928 -0.5 L 70.81538764775465 -0.5 Z"/><text text-anchor="middle" pointer-events="none" font-size="8px" fill="#000000" x="55.11616889775464" y="3" font-family="sans-serif">author</text></g><g class="relationship" transform="translate(-64.44488404879856 -30.89595055933245) rotate(407.6631077588155)"><path class="outline" fill="#A5ABB6" stroke="none" d="M 25 0.5 L 60.53549653821901 0.5 L 60.53549653821901 -0.5 L 25 -0.5 Z M 91.93393403821901 0.5 L 127.46943057643801 0.5 L 127.46943057643801 3.5 L 134.46943057643801 0 L 127.46943057643801 -3.5 L 127.46943057643801 -0.5 L 91.93393403821901 -0.5 Z"/><text text-anchor="middle" pointer-events="none" font-size="8px" fill="#000000" x="76.23471528821901" y="3" font-family="sans-serif">author</text></g><g class="relationship" transform="translate(36.8106626416664 -73.70041165944976) rotate(447.80981016595337)"><path class="outline" fill="#A5ABB6" stroke="none" d="M 25 0.5 L 61.20145631609216 0.5 L 61.20145631609216 -0.5 L 25 -0.5 Z M 92.59989381609216 0.5 L 128.80135013218433 0.5 L 128.80135013218433 3.5 L 135.80135013218433 0 L 128.80135013218433 -3.5 L 128.80135013218433 -0.5 L 92.59989381609216 -0.5 Z"/><text text-anchor="middle" pointer-events="none" font-size="8px" fill="#000000" x="76.90067506609216" y="3" font-family="sans-serif">author</text></g><g class="relationship" transform="translate(111.33462713033049 258.7685036226868) rotate(248.29507734175036)"><path class="outline" fill="#A5ABB6" stroke="none" d="M 25 0.5 L 73.2477119280635 0.5 L 73.2477119280635 -0.5 L 25 -0.5 Z M 104.6461494280635 0.5 L 152.893861356127 0.5 L 152.893861356127 3.5 L 159.893861356127 0 L 152.893861356127 -3.5 L 152.893861356127 -0.5 L 104.6461494280635 -0.5 Z"/><text text-anchor="middle" pointer-events="none" font-size="8px" fill="#000000" x="88.9469306780635" y="3" transform="rotate(180 88.9469306780635 0)" font-family="sans-serif">author</text></g><g class="relationship" transform="translate(-67.49251194356863 42.609009369546754) rotate(381.88859227062824)"><path class="outline" fill="#A5ABB6" stroke="none" d="M 25 0.5 L 40.31539724168817 0.5 L 40.31539724168817 -0.5 L 25 -0.5 Z M 71.71383474168817 0.5 L 87.02923198337633 0.5 L 87.02923198337633 3.5 L 94.02923198337633 0 L 87.02923198337633 -3.5 L 87.02923198337633 -0.5 L 71.71383474168817 -0.5 Z"/><text text-anchor="middle" pointer-events="none" font-size="8px" fill="#000000" x="56.01461599168817" y="3" font-family="sans-serif">author</text></g><g class="relationship" transform="translate(-94.7156653470109 117.97846600860674) rotate(347.31213757665296)"><path class="outline" fill="#A5ABB6" stroke="none" d="M 25 0.5 L 51.35956316487207 0.5 L 51.35956316487207 -0.5 L 25 -0.5 Z M 82.75800066487207 0.5 L 109.11756382974414 0.5 L 109.11756382974414 3.5 L 116.11756382974414 0 L 109.11756382974414 -3.5 L 109.11756382974414 -0.5 L 82.75800066487207 -0.5 Z"/><text text-anchor="middle" pointer-events="none" font-size="8px" fill="#000000" x="67.05878191487207" y="3" font-family="sans-serif">author</text></g><g class="relationship" transform="translate(-113.33370013296171 3.877332523761598) rotate(388.00155730977406)"><path class="outline" fill="#A5ABB6" stroke="none" d="M 25 0.5 L 69.30655565600506 0.5 L 69.30655565600506 -0.5 L 25 -0.5 Z M 100.70499315600506 0.5 L 145.01154881201012 0.5 L 145.01154881201012 3.5 L 152.01154881201012 0 L 145.01154881201012 -3.5 L 145.01154881201012 -0.5 L 100.70499315600506 -0.5 Z"/><text text-anchor="middle" pointer-events="none" font-size="8px" fill="#000000" x="85.00577440600506" y="3" font-family="sans-serif">author</text></g><g class="relationship" transform="translate(-104.20800167444501 237.55441263281193) rotate(314.3443931232712)"><path class="outline" fill="#A5ABB6" stroke="none" d="M 25 0.5 L 86.07285883866483 0.5 L 86.07285883866483 -0.5 L 25 -0.5 Z M 117.47129633866483 0.5 L 178.54415517732966 0.5 L 178.54415517732966 3.5 L 185.54415517732966 0 L 178.54415517732966 -3.5 L 178.54415517732966 -0.5 L 117.47129633866483 -0.5 Z"/><text text-anchor="middle" pointer-events="none" font-size="8px" fill="#000000" x="101.77207758866483" y="3" font-family="sans-serif">author</text></g><g class="relationship" transform="translate(-181.80114155940367 84.05193375634607) rotate(360.74727369982963)"><path class="outline" fill="#A5ABB6" stroke="none" d="M 25 0.5 L 93.18889172734609 0.5 L 93.18889172734609 -0.5 L 25 -0.5 Z M 124.58732922734609 0.5 L 192.77622095469218 0.5 L 192.77622095469218 3.5 L 199.77622095469218 0 L 192.77622095469218 -3.5 L 192.77622095469218 -0.5 L 124.58732922734609 -0.5 Z"/><text text-anchor="middle" pointer-events="none" font-size="8px" fill="#000000" x="108.88811047734609" y="3" font-family="sans-serif">author</text></g><g class="relationship" transform="translate(160.19542744434648 207.8014593418165) rotate(225.86121618377535)"><path class="outline" fill="#A5ABB6" stroke="none" d="M 25 0.5 L 64.97631072104848 0.5 L 64.97631072104848 -0.5 L 25 -0.5 Z M 96.37474822104848 0.5 L 136.35105894209696 0.5 L 136.35105894209696 3.5 L 143.35105894209696 0 L 136.35105894209696 -3.5 L 136.35105894209696 -0.5 L 96.37474822104848 -0.5 Z"/><text text-anchor="middle" pointer-events="none" font-size="8px" fill="#000000" x="80.67552947104848" y="3" transform="rotate(180 80.67552947104848 0)" font-family="sans-serif">author</text></g><g class="relationship" transform="translate(-25.49997022792157 -76.55493409874589) rotate(427.2861850462613)"><path class="outline" fill="#A5ABB6" stroke="none" d="M 25 0.5 L 69.44476573798842 0.5 L 69.44476573798842 -0.5 L 25 -0.5 Z M 100.84320323798842 0.5 L 145.28796897597684 0.5 L 145.28796897597684 3.5 L 152.28796897597684 0 L 145.28796897597684 -3.5 L 145.28796897597684 -0.5 L 100.84320323798842 -0.5 Z"/><text text-anchor="middle" pointer-events="none" font-size="8px" fill="#000000" x="85.14398448798842" y="3" font-family="sans-serif">author</text></g><g class="relationship" transform="translate(-128.13293497326367 -54.242317595433484) rotate(399.538060195625)"><path class="outline" fill="#A5ABB6" stroke="none" d="M 25 0.5 L 91.72432864786694 0.5 L 91.72432864786694 -0.5 L 25 -0.5 Z M 123.12276614786694 0.5 L 189.84709479573388 0.5 L 189.84709479573388 3.5 L 196.84709479573388 0 L 189.84709479573388 -3.5 L 189.84709479573388 -0.5 L 123.12276614786694 -0.5 Z"/><text text-anchor="middle" pointer-events="none" font-size="8px" fill="#000000" x="107.42354739786694" y="3" font-family="sans-serif">author</text></g><g class="relationship" transform="translate(31.190445291392393 226.1326437443313) rotate(274.8330494054637)"><path class="outline" fill="#A5ABB6" stroke="none" d="M 25 0.5 L 50.62362890600777 0.5 L 50.62362890600777 -0.5 L 25 -0.5 Z M 82.02206640600777 0.5 L 107.64569531201553 0.5 L 107.64569531201553 3.5 L 114.64569531201553 0 L 107.64569531201553 -3.5 L 107.64569531201553 -0.5 L 82.02206640600777 -0.5 Z"/><text text-anchor="middle" pointer-events="none" font-size="8px" fill="#000000" x="66.32284765600777" y="3" font-family="sans-serif">author</text></g><g class="relationship" transform="translate(-171.61126639466784 18.00505411136814) rotate(377.82140040846605)"><path class="outline" fill="#A5ABB6" stroke="none" d="M 25 0.5 L 93.49186034121662 0.5 L 93.49186034121662 -0.5 L 25 -0.5 Z M 124.89029784121662 0.5 L 193.38215818243324 0.5 L 193.38215818243324 3.5 L 200.38215818243324 0 L 193.38215818243324 -3.5 L 193.38215818243324 -0.5 L 124.89029784121662 -0.5 Z"/><text text-anchor="middle" pointer-events="none" font-size="8px" fill="#000000" x="109.19107909121662" y="3" font-family="sans-serif">author</text></g><g class="relationship" transform="translate(121.40912846043335 -94.01424785208751) rotate(473.43424198553987)"><path class="outline" fill="#A5ABB6" stroke="none" d="M 25 0.5 L 79.43529958206854 0.5 L 79.43529958206854 -0.5 L 25 -0.5 Z M 110.83373708206854 0.5 L 165.26903666413708 0.5 L 165.26903666413708 3.5 L 172.26903666413708 0 L 165.26903666413708 -3.5 L 165.26903666413708 -0.5 L 110.83373708206854 -0.5 Z"/><text text-anchor="middle" pointer-events="none" font-size="8px" fill="#000000" x="95.13451833206854" y="3" transform="rotate(180 95.13451833206854 0)" font-family="sans-serif">author</text></g><g class="relationship" transform="translate(-156.86176853734415 138.59188135780076) rotate(345.51826846120616)"><path class="outline" fill="#A5ABB6" stroke="none" d="M 25 0.5 L 83.98817591505197 0.5 L 83.98817591505197 -0.5 L 25 -0.5 Z M 115.38661341505197 0.5 L 174.37478933010394 0.5 L 174.37478933010394 3.5 L 181.37478933010394 0 L 174.37478933010394 -3.5 L 174.37478933010394 -0.5 L 115.38661341505197 -0.5 Z"/><text text-anchor="middle" pointer-events="none" font-size="8px" fill="#000000" x="99.68739466505197" y="3" font-family="sans-serif">author</text></g><g class="relationship" transform="translate(-98.25337724983547 177.86216127544432) rotate(327.2357113368993)"><path class="outline" fill="#A5ABB6" stroke="none" d="M 25 0.5 L 64.76359177931663 0.5 L 64.76359177931663 -0.5 L 25 -0.5 Z M 96.16202927931663 0.5 L 135.92562105863325 0.5 L 135.92562105863325 3.5 L 142.92562105863325 0 L 135.92562105863325 -3.5 L 135.92562105863325 -0.5 L 96.16202927931663 -0.5 Z"/><text text-anchor="middle" pointer-events="none" font-size="8px" fill="#000000" x="80.46281052931663" y="3" font-family="sans-serif">author</text></g><g class="relationship" transform="translate(-154.5519424502197 198.5466371885922) rotate(330.5398846748584)"><path class="outline" fill="#A5ABB6" stroke="none" d="M 25 0.5 L 94.22003978422342 0.5 L 94.22003978422342 -0.5 L 25 -0.5 Z M 125.61847728422342 0.5 L 194.83851706844683 0.5 L 194.83851706844683 3.5 L 201.83851706844683 0 L 194.83851706844683 -3.5 L 194.83851706844683 -0.5 L 125.61847728422342 -0.5 Z"/><text text-anchor="middle" pointer-events="none" font-size="8px" fill="#000000" x="109.91925853422342" y="3" font-family="sans-serif">author</text></g><g class="relationship" transform="translate(161.90545534754585 -49.74944902415108) rotate(491.02132624093935)"><path class="outline" fill="#A5ABB6" stroke="none" d="M 25 0.5 L 71.4165536516865 0.5 L 71.4165536516865 -0.5 L 25 -0.5 Z M 102.8149911516865 0.5 L 149.231544803373 0.5 L 149.231544803373 3.5 L 156.231544803373 0 L 149.231544803373 -3.5 L 149.231544803373 -0.5 L 102.8149911516865 -0.5 Z"/><text text-anchor="middle" pointer-events="none" font-size="8px" fill="#000000" x="87.1157724016865" y="3" transform="rotate(180 87.1157724016865 0)" font-family="sans-serif">author</text></g><g class="relationship" transform="translate(-38.60044759000127 171.5892861950821) rotate(313.9486264232986)"><path class="outline" fill="#A5ABB6" stroke="none" d="M 25 0.5 L 39.55789199668061 0.5 L 39.55789199668061 -0.5 L 25 -0.5 Z M 70.95632949668061 0.5 L 85.51422149336122 0.5 L 85.51422149336122 3.5 L 92.51422149336122 0 L 85.51422149336122 -3.5 L 85.51422149336122 -0.5 L 70.95632949668061 -0.5 Z"/><text text-anchor="middle" pointer-events="none" font-size="8px" fill="#000000" x="55.25711074668061" y="3" font-family="sans-serif">author</text></g><g class="relationship" transform="translate(144.1057347337382 150.0091850872689) rotate(211.92674498809134)"><path class="outline" fill="#A5ABB6" stroke="none" d="M 25 0.5 L 40.39003659557546 0.5 L 40.39003659557546 -0.5 L 25 -0.5 Z M 71.78847409557545 0.5 L 87.17851069115092 0.5 L 87.17851069115092 3.5 L 94.17851069115092 0 L 87.17851069115092 -3.5 L 87.17851069115092 -0.5 L 71.78847409557545 -0.5 Z"/><text text-anchor="middle" pointer-events="none" font-size="8px" fill="#000000" x="56.08925534557546" y="3" transform="rotate(180 56.08925534557546 0)" font-family="sans-serif">author</text></g><g class="relationship" transform="translate(-124.6291185115571 65.96509361810786) rotate(367.14866018019154)"><path class="outline" fill="#A5ABB6" stroke="none" d="M 25 0.5 L 65.24977668334832 0.5 L 65.24977668334832 -0.5 L 25 -0.5 Z M 96.64821418334832 0.5 L 136.89799086669663 0.5 L 136.89799086669663 3.5 L 143.89799086669663 0 L 136.89799086669663 -3.5 L 136.89799086669663 -0.5 L 96.64821418334832 -0.5 Z"/><text text-anchor="middle" pointer-events="none" font-size="8px" fill="#000000" x="80.94899543334832" y="3" font-family="sans-serif">author</text></g><g class="relationship" transform="translate(195.46681755994015 6.207618154411406) rotate(512.0925154165083)"><path class="outline" fill="#A5ABB6" stroke="none" d="M 25 0.5 L 67.09142259722834 0.5 L 67.09142259722834 -0.5 L 25 -0.5 Z M 98.48986009722834 0.5 L 140.5812826944567 0.5 L 140.5812826944567 3.5 L 147.5812826944567 0 L 140.5812826944567 -3.5 L 140.5812826944567 -0.5 L 98.48986009722834 -0.5 Z"/><text text-anchor="middle" pointer-events="none" font-size="8px" fill="#000000" x="82.79064134722834" y="3" transform="rotate(180 82.79064134722834 0)" font-family="sans-serif">author</text></g><g class="relationship" transform="translate(-62.250750246999225 280.40874912965984) rotate(298.54238710044194)"><path class="outline" fill="#A5ABB6" stroke="none" d="M 25 0.5 L 90.89368667898857 0.5 L 90.89368667898857 -0.5 L 25 -0.5 Z M 122.29212417898857 0.5 L 188.18581085797715 0.5 L 188.18581085797715 3.5 L 195.18581085797715 0 L 188.18581085797715 -3.5 L 188.18581085797715 -0.5 L 122.29212417898857 -0.5 Z"/><text text-anchor="middle" pointer-events="none" font-size="8px" fill="#000000" x="106.59290542898857" y="3" font-family="sans-serif">author</text></g><g class="relationship" transform="translate(182.55042228993008 64.79694931488444) rotate(530.9692001531216)"><path class="outline" fill="#A5ABB6" stroke="none" d="M 25 0.5 L 51.47407004113086 0.5 L 51.47407004113086 -0.5 L 25 -0.5 Z M 82.87250754113086 0.5 L 109.34657758226172 0.5 L 109.34657758226172 3.5 L 116.34657758226172 0 L 109.34657758226172 -3.5 L 109.34657758226172 -0.5 L 82.87250754113086 -0.5 Z"/><text text-anchor="middle" pointer-events="none" font-size="8px" fill="#000000" x="67.17328879113086" y="3" transform="rotate(180 67.17328879113086 0)" font-family="sans-serif">author</text></g><g class="relationship" transform="translate(-2.877521119168654 288.95423313921793) rotate(282.7856618424189)"><path class="outline" fill="#A5ABB6" stroke="none" d="M 25 0.5 L 84.35378428247779 0.5 L 84.35378428247779 -0.5 L 25 -0.5 Z M 115.75222178247779 0.5 L 175.10600606495558 0.5 L 175.10600606495558 3.5 L 182.10600606495558 0 L 175.10600606495558 -3.5 L 175.10600606495558 -0.5 L 115.75222178247779 -0.5 Z"/><text text-anchor="middle" pointer-events="none" font-size="8px" fill="#000000" x="100.05300303247779" y="3" font-family="sans-serif">author</text></g><g class="relationship" transform="translate(135.52336174216555 8.772682399134482) rotate(499.8053197354218)"><path class="outline" fill="#A5ABB6" stroke="none" d="M 25 0.5 L 41.39296439025655 0.5 L 41.39296439025655 -0.5 L 25 -0.5 Z M 72.79140189025655 0.5 L 89.1843662805131 0.5 L 89.1843662805131 3.5 L 96.1843662805131 0 L 89.1843662805131 -3.5 L 89.1843662805131 -0.5 L 72.79140189025655 -0.5 Z"/><text text-anchor="middle" pointer-events="none" font-size="8px" fill="#000000" x="57.09218314025655" y="3" transform="rotate(180 57.09218314025655 0)" font-family="sans-serif">author</text></g><g class="relationship" transform="translate(56.89727819547061 283.99435487017456) rotate(265.9522579038656)"><path class="outline" fill="#A5ABB6" stroke="none" d="M 25 0.5 L 79.55255269344877 0.5 L 79.55255269344877 -0.5 L 25 -0.5 Z M 110.95099019344877 0.5 L 165.50354288689755 0.5 L 165.50354288689755 3.5 L 172.50354288689755 0 L 165.50354288689755 -3.5 L 165.50354288689755 -0.5 L 110.95099019344877 -0.5 Z"/><text text-anchor="middle" pointer-events="none" font-size="8px" fill="#000000" x="95.25177144344877" y="3" transform="rotate(180 95.25177144344877 0)" font-family="sans-serif">author</text></g><g class="relationship" transform="translate(-0.5423976169099621 -131.0716184433765) rotate(438.71853360528854)"><path class="outline" fill="#A5ABB6" stroke="none" d="M 25 0.5 L 91.9764625448671 0.5 L 91.9764625448671 -0.5 L 25 -0.5 Z M 123.3749000448671 0.5 L 190.3513625897342 0.5 L 190.3513625897342 3.5 L 197.3513625897342 0 L 190.3513625897342 -3.5 L 190.3513625897342 -0.5 L 123.3749000448671 -0.5 Z"/><text text-anchor="middle" pointer-events="none" font-size="8px" fill="#000000" x="107.6756812948671" y="3" font-family="sans-serif">author</text></g><g class="relationship" transform="translate(197.58376619054633 122.8732031697234) rotate(193.06720618785528)"><path class="outline" fill="#A5ABB6" stroke="none" d="M 25 0.5 L 60.16990440772072 0.5 L 60.16990440772072 -0.5 L 25 -0.5 Z M 91.56834190772072 0.5 L 126.73824631544144 0.5 L 126.73824631544144 3.5 L 133.73824631544144 0 L 126.73824631544144 -3.5 L 126.73824631544144 -0.5 L 91.56834190772072 -0.5 Z"/><text text-anchor="middle" pointer-events="none" font-size="8px" fill="#000000" x="75.86912315772072" y="3" transform="rotate(180 75.86912315772072 0)" font-family="sans-serif">author</text></g></g><g class="layer nodes"><g class="node" transform="translate(221.82124059099118,329.93394055859034)"><circle class="outline" cx="0" cy="0" r="25" fill="#4C8EDA" stroke="#2870c2" stroke-width="2px"/><text text-anchor="middle" pointer-events="none" font-family="sans-serif" dy="1.5625" font-size="25" fill="#FFFFFF"/><text text-anchor="middle" pointer-events="none" y="5" font-size="10px" fill="#FFFFFF" font-family="sans-serif"> USA</text></g><g class="node" transform="translate(424.326239761563,335.10896549215204)"><circle class="outline" cx="0" cy="0" r="25" fill="#8DCC93" stroke="#5db665" stroke-width="2px"/><text text-anchor="middle" pointer-events="none" font-family="sans-serif" dy="1.5625" font-size="25" fill="#2A2C34"/><text text-anchor="middle" pointer-events="none" y="5" font-size="10px" fill="#2A2C34" font-family="sans-serif"> Ruhr-Un…</text></g><g class="node" transform="translate(306.1666012117931,153.30025543213125)"><circle class="outline" cx="0" cy="0" r="25" fill="#F79767" stroke="#f36924" stroke-width="2px"/><text text-anchor="middle" pointer-events="none" font-family="sans-serif" dy="1.5625" font-size="25" fill="#FFFFFF"/><text text-anchor="middle" pointer-events="none" y="5" font-size="10px" fill="#FFFFFF" font-family="sans-serif"> Chicago</text></g><g class="node" transform="translate(387.2495394588917,492.07253025397046)"><circle class="outline" cx="0" cy="0" r="25" fill="#FFC454" stroke="#d7a013" stroke-width="2px"/><text text-anchor="middle" pointer-events="none" font-family="sans-serif" dy="1.5625" font-size="25" fill="#2A2C34"/><text text-anchor="middle" pointer-events="none" y="5" font-size="10px" fill="#2A2C34" font-family="sans-serif"> Daniel.T…</text></g><g class="node" transform="translate(502.79773152684476,459.7932737644593)"><circle class="outline" cx="0" cy="0" r="25" fill="#FFC454" stroke="#d7a013" stroke-width="2px"/><text text-anchor="middle" pointer-events="none" font-family="sans-serif" dy="1.5625" font-size="25" fill="#2A2C34"/><text text-anchor="middle" pointer-events="none" y="5" font-size="10px" fill="#2A2C34" font-family="sans-serif"> Stephan…</text></g><g class="node" transform="translate(346.0721790889716,448.44964010636386)"><circle class="outline" cx="0" cy="0" r="25" fill="#FFC454" stroke="#d7a013" stroke-width="2px"/><text text-anchor="middle" pointer-events="none" font-family="sans-serif" dy="1.5625" font-size="25" fill="#2A2C34"/><text text-anchor="middle" pointer-events="none" y="5" font-size="10px" fill="#2A2C34" font-family="sans-serif"> Stephan…</text></g><g class="node" transform="translate(444.9661541990271,475.7242879378863)"><circle class="outline" cx="0" cy="0" r="25" fill="#FFC454" stroke="#d7a013" stroke-width="2px"/><text text-anchor="middle" pointer-events="none" font-family="sans-serif" dy="1.5625" font-size="25" fill="#2A2C34"/><text text-anchor="middle" pointer-events="none" y="5" font-size="10px" fill="#2A2C34" font-family="sans-serif"> Daniel.T…</text></g><g class="node" transform="translate(539.3747663071539,412.2194554977648)"><circle class="outline" cx="0" cy="0" r="25" fill="#FFC454" stroke="#d7a013" stroke-width="2px"/><text text-anchor="middle" pointer-events="none" font-family="sans-serif" dy="1.5625" font-size="25" fill="#2A2C34"/><text text-anchor="middle" pointer-events="none" y="5" font-size="10px" fill="#2A2C34" font-family="sans-serif"> Eike.Stei…</text></g><g class="node" transform="translate(553.6276354161746,348.4997161498643)"><circle class="outline" cx="0" cy="0" r="25" fill="#FFC454" stroke="#d7a013" stroke-width="2px"/><text text-anchor="middle" pointer-events="none" font-family="sans-serif" dy="1.5625" font-size="25" fill="#2A2C34"/><text text-anchor="middle" pointer-events="none" y="5" font-size="10px" fill="#2A2C34" font-family="sans-serif"> Eike.Stei…</text></g><g class="node" transform="translate(478.6430010616113,158.00749300015795)"><circle class="outline" cx="0" cy="0" r="25" fill="#8DCC93" stroke="#5db665" stroke-width="2px"/><text text-anchor="middle" pointer-events="none" font-family="sans-serif" dy="1.5625" font-size="25" fill="#2A2C34"/><text text-anchor="middle" pointer-events="none" y="5" font-size="10px" fill="#2A2C34" font-family="sans-serif"> Universi…</text></g><g class="node" transform="translate(600.5917210145909,223.47457021977522)"><circle class="outline" cx="0" cy="0" r="25" fill="#FFC454" stroke="#d7a013" stroke-width="2px"/><text text-anchor="middle" pointer-events="none" font-family="sans-serif" dy="1.5625" font-size="25" fill="#2A2C34"/><text text-anchor="middle" pointer-events="none" y="5" font-size="10px" fill="#2A2C34" font-family="sans-serif"> Steven.…</text></g><g class="node" transform="translate(622.0915592863729,151.70544881332097)"><circle class="outline" cx="0" cy="0" r="25" fill="#FFC454" stroke="#d7a013" stroke-width="2px"/><text text-anchor="middle" pointer-events="none" font-family="sans-serif" dy="1.5625" font-size="25" fill="#2A2C34"/><text text-anchor="middle" pointer-events="none" y="5" font-size="10px" fill="#2A2C34" font-family="sans-serif"> Xiangdo…</text></g><g class="node" transform="translate(448.03683811431046,1.8504008688009663)"><circle class="outline" cx="0" cy="0" r="25" fill="#8DCC93" stroke="#5db665" stroke-width="2px"/><text text-anchor="middle" pointer-events="none" font-family="sans-serif" dy="1.5625" font-size="25" fill="#2A2C34"/><text text-anchor="middle" pointer-events="none" font-family="sans-serif" dy="1.5625" font-size="25" fill="#2A2C34"/><text text-anchor="middle" pointer-events="none" y="0" font-size="10px" fill="#2A2C34" font-family="sans-serif"> Loyola</text><text text-anchor="middle" pointer-events="none" y="10" font-size="10px" fill="#2A2C34" font-family="sans-serif"> Univers…</text></g><g class="node" transform="translate(592.338113921441,-22.177191218188486)"><circle class="outline" cx="0" cy="0" r="25" fill="#FFC454" stroke="#d7a013" stroke-width="2px"/><text text-anchor="middle" pointer-events="none" font-family="sans-serif" dy="1.5625" font-size="25" fill="#2A2C34"/><text text-anchor="middle" pointer-events="none" y="5" font-size="10px" fill="#2A2C34" font-family="sans-serif"> C.Mettel…</text></g><g class="node" transform="translate(571.9561401258712,36.05859783772047)"><circle class="outline" cx="0" cy="0" r="25" fill="#FFC454" stroke="#d7a013" stroke-width="2px"/><text text-anchor="middle" pointer-events="none" font-family="sans-serif" dy="1.5625" font-size="25" fill="#2A2C34"/><text text-anchor="middle" pointer-events="none" y="5" font-size="10px" fill="#2A2C34" font-family="sans-serif"> Tom.Gal…</text></g><g class="node" transform="translate(545.5830649165661,-132.67544102304004)"><circle class="outline" cx="0" cy="0" r="25" fill="#FFC454" stroke="#d7a013" stroke-width="2px"/><text text-anchor="middle" pointer-events="none" font-family="sans-serif" dy="1.5625" font-size="25" fill="#2A2C34"/><text text-anchor="middle" pointer-events="none" y="5" font-size="10px" fill="#2A2C34" font-family="sans-serif"> Anna.M.…</text></g><g class="node" transform="translate(568.5554404193622,-77.24924404742106)"><circle class="outline" cx="0" cy="0" r="25" fill="#FFC454" stroke="#d7a013" stroke-width="2px"/><text text-anchor="middle" pointer-events="none" font-family="sans-serif" dy="1.5625" font-size="25" fill="#2A2C34"/><text text-anchor="middle" pointer-events="none" y="5" font-size="10px" fill="#2A2C34" font-family="sans-serif"> Xufang.…</text></g><g class="node" transform="translate(407.91752439775524,-134.23363587747858)"><circle class="outline" cx="0" cy="0" r="25" fill="#FFC454" stroke="#d7a013" stroke-width="2px"/><text text-anchor="middle" pointer-events="none" font-family="sans-serif" dy="1.5625" font-size="25" fill="#2A2C34"/><text text-anchor="middle" pointer-events="none" y="5" font-size="10px" fill="#2A2C34" font-family="sans-serif"> C.Baker</text></g><g class="node" transform="translate(488.8904697646456,-113.07872711101923)"><circle class="outline" cx="0" cy="0" r="25" fill="#FFC454" stroke="#d7a013" stroke-width="2px"/><text text-anchor="middle" pointer-events="none" font-family="sans-serif" dy="1.5625" font-size="25" fill="#2A2C34"/><text text-anchor="middle" pointer-events="none" y="5" font-size="10px" fill="#2A2C34" font-family="sans-serif"> Matthe…</text></g><g class="node" transform="translate(462.5955096419527,-167.00104169420538)"><circle class="outline" cx="0" cy="0" r="25" fill="#FFC454" stroke="#d7a013" stroke-width="2px"/><text text-anchor="middle" pointer-events="none" font-family="sans-serif" dy="1.5625" font-size="25" fill="#2A2C34"/><text text-anchor="middle" pointer-events="none" y="5" font-size="10px" fill="#2A2C34" font-family="sans-serif"> Amornr…</text></g><g class="node" transform="translate(42.95596201656372,86.9834689880073)"><circle class="outline" cx="0" cy="0" r="25" fill="#8DCC93" stroke="#5db665" stroke-width="2px"/><text text-anchor="middle" pointer-events="none" font-family="sans-serif" dy="1.5625" font-size="25" fill="#2A2C34"/><text text-anchor="middle" pointer-events="none" y="5" font-size="10px" fill="#2A2C34" font-family="sans-serif"> Universi…</text></g><g class="node" transform="translate(-28.639614245909886,230.73846016287433)"><circle class="outline" cx="0" cy="0" r="25" fill="#FFC454" stroke="#d7a013" stroke-width="2px"/><text text-anchor="middle" pointer-events="none" font-family="sans-serif" dy="1.5625" font-size="25" fill="#2A2C34"/><text text-anchor="middle" pointer-events="none" y="5" font-size="10px" fill="#2A2C34" font-family="sans-serif"> Y.Wang</text></g><g class="node" transform="translate(90.18360295933194,-42.228840184670844)"><circle class="outline" cx="0" cy="0" r="25" fill="#FFC454" stroke="#d7a013" stroke-width="2px"/><text text-anchor="middle" pointer-events="none" font-family="sans-serif" dy="1.5625" font-size="25" fill="#2A2C34"/><text text-anchor="middle" pointer-events="none" y="5" font-size="10px" fill="#2A2C34" font-family="sans-serif"> Mingyu.…</text></g><g class="node" transform="translate(69.45289294704453,-124.0138552924584)"><circle class="outline" cx="0" cy="0" r="25" fill="#FFC454" stroke="#d7a013" stroke-width="2px"/><text text-anchor="middle" pointer-events="none" font-family="sans-serif" dy="1.5625" font-size="25" fill="#2A2C34"/><text text-anchor="middle" pointer-events="none" y="5" font-size="10px" fill="#2A2C34" font-family="sans-serif"> Yan.Hua…</text></g><g class="node" transform="translate(92.18124487753548,201.93650104979335)"><circle class="outline" cx="0" cy="0" r="25" fill="#FFC454" stroke="#d7a013" stroke-width="2px"/><text text-anchor="middle" pointer-events="none" font-family="sans-serif" dy="1.5625" font-size="25" fill="#2A2C34"/><text text-anchor="middle" pointer-events="none" y="5" font-size="10px" fill="#2A2C34" font-family="sans-serif"> C.Yao</text></g><g class="node" transform="translate(-81.92621423129769,-96.83968728843469)"><circle class="outline" cx="0" cy="0" r="25" fill="#FFC454" stroke="#d7a013" stroke-width="2px"/><text text-anchor="middle" pointer-events="none" font-family="sans-serif" dy="1.5625" font-size="25" fill="#2A2C34"/><text text-anchor="middle" pointer-events="none" y="5" font-size="10px" fill="#2A2C34" font-family="sans-serif"> Jing.Wa…</text></g><g class="node" transform="translate(2.1464289420056755,-22.916499325168065)"><circle class="outline" cx="0" cy="0" r="25" fill="#FFC454" stroke="#d7a013" stroke-width="2px"/><text text-anchor="middle" pointer-events="none" font-family="sans-serif" dy="1.5625" font-size="25" fill="#2A2C34"/><text text-anchor="middle" pointer-events="none" y="5" font-size="10px" fill="#2A2C34" font-family="sans-serif"> Karolina…</text></g><g class="node" transform="translate(-64.44488404879856,-30.89595055933245)"><circle class="outline" cx="0" cy="0" r="25" fill="#FFC454" stroke="#d7a013" stroke-width="2px"/><text text-anchor="middle" pointer-events="none" font-family="sans-serif" dy="1.5625" font-size="25" fill="#2A2C34"/><text text-anchor="middle" pointer-events="none" y="5" font-size="10px" fill="#2A2C34" font-family="sans-serif"> G.Tao</text></g><g class="node" transform="translate(36.8106626416664,-73.70041165944976)"><circle class="outline" cx="0" cy="0" r="25" fill="#FFC454" stroke="#d7a013" stroke-width="2px"/><text text-anchor="middle" pointer-events="none" font-family="sans-serif" dy="1.5625" font-size="25" fill="#2A2C34"/><text text-anchor="middle" pointer-events="none" y="5" font-size="10px" fill="#2A2C34" font-family="sans-serif"> Alexand…</text></g><g class="node" transform="translate(111.33462713033049,258.7685036226868)"><circle class="outline" cx="0" cy="0" r="25" fill="#FFC454" stroke="#d7a013" stroke-width="2px"/><text text-anchor="middle" pointer-events="none" font-family="sans-serif" dy="1.5625" font-size="25" fill="#2A2C34"/><text text-anchor="middle" pointer-events="none" y="5" font-size="10px" fill="#2A2C34" font-family="sans-serif"> Andrzej.…</text></g><g class="node" transform="translate(-67.49251194356863,42.609009369546754)"><circle class="outline" cx="0" cy="0" r="25" fill="#FFC454" stroke="#d7a013" stroke-width="2px"/><text text-anchor="middle" pointer-events="none" font-family="sans-serif" dy="1.5625" font-size="25" fill="#2A2C34"/><text text-anchor="middle" pointer-events="none" y="5" font-size="10px" fill="#2A2C34" font-family="sans-serif"> Qijun.G…</text></g><g class="node" transform="translate(-94.7156653470109,117.97846600860674)"><circle class="outline" cx="0" cy="0" r="25" fill="#FFC454" stroke="#d7a013" stroke-width="2px"/><text text-anchor="middle" pointer-events="none" font-family="sans-serif" dy="1.5625" font-size="25" fill="#2A2C34"/><text text-anchor="middle" pointer-events="none" y="5" font-size="10px" fill="#2A2C34" font-family="sans-serif"> Y.Wang</text></g><g class="node" transform="translate(-113.33370013296171,3.877332523761598)"><circle class="outline" cx="0" cy="0" r="25" fill="#FFC454" stroke="#d7a013" stroke-width="2px"/><text text-anchor="middle" pointer-events="none" font-family="sans-serif" dy="1.5625" font-size="25" fill="#2A2C34"/><text text-anchor="middle" pointer-events="none" y="5" font-size="10px" fill="#2A2C34" font-family="sans-serif"> Z.Hu</text></g><g class="node" transform="translate(-104.20800167444501,237.55441263281193)"><circle class="outline" cx="0" cy="0" r="25" fill="#FFC454" stroke="#d7a013" stroke-width="2px"/><text text-anchor="middle" pointer-events="none" font-family="sans-serif" dy="1.5625" font-size="25" fill="#2A2C34"/><text text-anchor="middle" pointer-events="none" y="5" font-size="10px" fill="#2A2C34" font-family="sans-serif"> Y.Lei</text></g><g class="node" transform="translate(-181.80114155940367,84.05193375634607)"><circle class="outline" cx="0" cy="0" r="25" fill="#FFC454" stroke="#d7a013" stroke-width="2px"/><text text-anchor="middle" pointer-events="none" font-family="sans-serif" dy="1.5625" font-size="25" fill="#2A2C34"/><text text-anchor="middle" pointer-events="none" y="5" font-size="10px" fill="#2A2C34" font-family="sans-serif"> D.Zou</text></g><g class="node" transform="translate(160.19542744434648,207.8014593418165)"><circle class="outline" cx="0" cy="0" r="25" fill="#FFC454" stroke="#d7a013" stroke-width="2px"/><text text-anchor="middle" pointer-events="none" font-family="sans-serif" dy="1.5625" font-size="25" fill="#2A2C34"/><text text-anchor="middle" pointer-events="none" y="5" font-size="10px" fill="#2A2C34" font-family="sans-serif"> Y.Wang</text></g><g class="node" transform="translate(-25.49997022792157,-76.55493409874589)"><circle class="outline" cx="0" cy="0" r="25" fill="#FFC454" stroke="#d7a013" stroke-width="2px"/><text text-anchor="middle" pointer-events="none" font-family="sans-serif" dy="1.5625" font-size="25" fill="#2A2C34"/><text text-anchor="middle" pointer-events="none" y="5" font-size="10px" fill="#2A2C34" font-family="sans-serif"> Robert.J…</text></g><g class="node" transform="translate(-128.13293497326367,-54.242317595433484)"><circle class="outline" cx="0" cy="0" r="25" fill="#FFC454" stroke="#d7a013" stroke-width="2px"/><text text-anchor="middle" pointer-events="none" font-family="sans-serif" dy="1.5625" font-size="25" fill="#2A2C34"/><text text-anchor="middle" pointer-events="none" y="5" font-size="10px" fill="#2A2C34" font-family="sans-serif"> Jing.Wu</text></g><g class="node" transform="translate(31.190445291392393,226.1326437443313)"><circle class="outline" cx="0" cy="0" r="25" fill="#FFC454" stroke="#d7a013" stroke-width="2px"/><text text-anchor="middle" pointer-events="none" font-family="sans-serif" dy="1.5625" font-size="25" fill="#2A2C34"/><text text-anchor="middle" pointer-events="none" y="5" font-size="10px" fill="#2A2C34" font-family="sans-serif"> Yingfu.…</text></g><g class="node" transform="translate(-171.61126639466784,18.00505411136814)"><circle class="outline" cx="0" cy="0" r="25" fill="#FFC454" stroke="#d7a013" stroke-width="2px"/><text text-anchor="middle" pointer-events="none" font-family="sans-serif" dy="1.5625" font-size="25" fill="#2A2C34"/><text text-anchor="middle" pointer-events="none" y="5" font-size="10px" fill="#2A2C34" font-family="sans-serif"> Dai.Zhig…</text></g><g class="node" transform="translate(121.40912846043335,-94.01424785208751)"><circle class="outline" cx="0" cy="0" r="25" fill="#FFC454" stroke="#d7a013" stroke-width="2px"/><text text-anchor="middle" pointer-events="none" font-family="sans-serif" dy="1.5625" font-size="25" fill="#2A2C34"/><text text-anchor="middle" pointer-events="none" y="5" font-size="10px" fill="#2A2C34" font-family="sans-serif"> Jiawei.Liu</text></g><g class="node" transform="translate(-156.86176853734415,138.59188135780076)"><circle class="outline" cx="0" cy="0" r="25" fill="#FFC454" stroke="#d7a013" stroke-width="2px"/><text text-anchor="middle" pointer-events="none" font-family="sans-serif" dy="1.5625" font-size="25" fill="#2A2C34"/><text text-anchor="middle" pointer-events="none" y="5" font-size="10px" fill="#2A2C34" font-family="sans-serif"> Katelyn.…</text></g><g class="node" transform="translate(-98.25337724983547,177.86216127544432)"><circle class="outline" cx="0" cy="0" r="25" fill="#FFC454" stroke="#d7a013" stroke-width="2px"/><text text-anchor="middle" pointer-events="none" font-family="sans-serif" dy="1.5625" font-size="25" fill="#2A2C34"/><text text-anchor="middle" pointer-events="none" y="5" font-size="10px" fill="#2A2C34" font-family="sans-serif"> Jing.Wa…</text></g><g class="node" transform="translate(-154.5519424502197,198.5466371885922)"><circle class="outline" cx="0" cy="0" r="25" fill="#FFC454" stroke="#d7a013" stroke-width="2px"/><text text-anchor="middle" pointer-events="none" font-family="sans-serif" dy="1.5625" font-size="25" fill="#2A2C34"/><text text-anchor="middle" pointer-events="none" y="5" font-size="10px" fill="#2A2C34" font-family="sans-serif"> M.Ping</text></g><g class="node" transform="translate(161.90545534754585,-49.74944902415108)"><circle class="outline" cx="0" cy="0" r="25" fill="#FFC454" stroke="#d7a013" stroke-width="2px"/><text text-anchor="middle" pointer-events="none" font-family="sans-serif" dy="1.5625" font-size="25" fill="#2A2C34"/><text text-anchor="middle" pointer-events="none" y="5" font-size="10px" fill="#2A2C34" font-family="sans-serif"> China.( K.</text></g><g class="node" transform="translate(-38.60044759000127,171.5892861950821)"><circle class="outline" cx="0" cy="0" r="25" fill="#FFC454" stroke="#d7a013" stroke-width="2px"/><text text-anchor="middle" pointer-events="none" font-family="sans-serif" dy="1.5625" font-size="25" fill="#2A2C34"/><text text-anchor="middle" pointer-events="none" y="5" font-size="10px" fill="#2A2C34" font-family="sans-serif"> Z.Hu</text></g><g class="node" transform="translate(144.1057347337382,150.0091850872689)"><circle class="outline" cx="0" cy="0" r="25" fill="#FFC454" stroke="#d7a013" stroke-width="2px"/><text text-anchor="middle" pointer-events="none" font-family="sans-serif" dy="1.5625" font-size="25" fill="#2A2C34"/><text text-anchor="middle" pointer-events="none" y="5" font-size="10px" fill="#2A2C34" font-family="sans-serif"> Zhiguo.…</text></g><g class="node" transform="translate(-124.6291185115571,65.96509361810786)"><circle class="outline" cx="0" cy="0" r="25" fill="#FFC454" stroke="#d7a013" stroke-width="2px"/><text text-anchor="middle" pointer-events="none" font-family="sans-serif" dy="1.5625" font-size="25" fill="#2A2C34"/><text text-anchor="middle" pointer-events="none" y="5" font-size="10px" fill="#2A2C34" font-family="sans-serif"> Natalia.I…</text></g><g class="node" transform="translate(195.46681755994015,6.207618154411406)"><circle class="outline" cx="0" cy="0" r="25" fill="#FFC454" stroke="#d7a013" stroke-width="2px"/><text text-anchor="middle" pointer-events="none" font-family="sans-serif" dy="1.5625" font-size="25" fill="#2A2C34"/><text text-anchor="middle" pointer-events="none" y="5" font-size="10px" fill="#2A2C34" font-family="sans-serif"> Jing.Wu</text></g><g class="node" transform="translate(-62.250750246999225,280.40874912965984)"><circle class="outline" cx="0" cy="0" r="25" fill="#FFC454" stroke="#d7a013" stroke-width="2px"/><text text-anchor="middle" pointer-events="none" font-family="sans-serif" dy="1.5625" font-size="25" fill="#2A2C34"/><text text-anchor="middle" pointer-events="none" y="5" font-size="10px" fill="#2A2C34" font-family="sans-serif"> Merced…</text></g><g class="node" transform="translate(182.55042228993008,64.79694931488444)"><circle class="outline" cx="0" cy="0" r="25" fill="#FFC454" stroke="#d7a013" stroke-width="2px"/><text text-anchor="middle" pointer-events="none" font-family="sans-serif" dy="1.5625" font-size="25" fill="#2A2C34"/><text text-anchor="middle" pointer-events="none" y="5" font-size="10px" fill="#2A2C34" font-family="sans-serif"> Paul.L.M…</text></g><g class="node" transform="translate(-2.877521119168654,288.95423313921793)"><circle class="outline" cx="0" cy="0" r="25" fill="#FFC454" stroke="#d7a013" stroke-width="2px"/><text text-anchor="middle" pointer-events="none" font-family="sans-serif" dy="1.5625" font-size="25" fill="#2A2C34"/><text text-anchor="middle" pointer-events="none" y="5" font-size="10px" fill="#2A2C34" font-family="sans-serif"> Paul.L.M…</text></g><g class="node" transform="translate(135.52336174216555,8.772682399134482)"><circle class="outline" cx="0" cy="0" r="25" fill="#FFC454" stroke="#d7a013" stroke-width="2px"/><text text-anchor="middle" pointer-events="none" font-family="sans-serif" dy="1.5625" font-size="25" fill="#2A2C34"/><text text-anchor="middle" pointer-events="none" y="5" font-size="10px" fill="#2A2C34" font-family="sans-serif"> Guizhou.</text></g><g class="node" transform="translate(56.89727819547061,283.99435487017456)"><circle class="outline" cx="0" cy="0" r="25" fill="#FFC454" stroke="#d7a013" stroke-width="2px"/><text text-anchor="middle" pointer-events="none" font-family="sans-serif" dy="1.5625" font-size="25" fill="#2A2C34"/><text text-anchor="middle" pointer-events="none" y="5" font-size="10px" fill="#2A2C34" font-family="sans-serif"> Y.Gou</text></g><g class="node" transform="translate(-0.5423976169099621,-131.0716184433765)"><circle class="outline" cx="0" cy="0" r="25" fill="#FFC454" stroke="#d7a013" stroke-width="2px"/><text text-anchor="middle" pointer-events="none" font-family="sans-serif" dy="1.5625" font-size="25" fill="#2A2C34"/><text text-anchor="middle" pointer-events="none" y="5" font-size="10px" fill="#2A2C34" font-family="sans-serif"> Ying.Tao</text></g><g class="node" transform="translate(197.58376619054633,122.8732031697234)"><circle class="outline" cx="0" cy="0" r="25" fill="#FFC454" stroke="#d7a013" stroke-width="2px"/><text text-anchor="middle" pointer-events="none" font-family="sans-serif" dy="1.5625" font-size="25" fill="#2A2C34"/><text text-anchor="middle" pointer-events="none" y="5" font-size="10px" fill="#2A2C34" font-family="sans-serif"> Feng.Xi…</text></g></g></svg>